# Blender v2.69 (sub 0) OBJ File: ''
# www.blender.org
mtllib BarrelExtra001.mtl
o Cylinder001
v 12.440000 0.000000 0.000000
v 6.220000 10.773400 0.000002
v 7.445000 12.895099 8.000002
v 14.890000 -0.000001 8.000000
v -6.220000 10.773400 0.000002
v -7.445000 12.895099 8.000002
v -12.440000 0.000000 0.000000
v -14.890000 -0.000001 8.000000
v -6.220000 -10.773400 -0.000002
v -7.445000 -12.895101 7.999998
v 6.220000 -10.773400 -0.000002
v 7.445000 -12.895101 7.999998
v 8.000000 13.856397 16.000002
v 16.000000 -0.000003 16.000000
v -8.000000 13.856397 16.000002
v -16.000000 -0.000003 16.000000
v -8.000000 -13.856402 15.999998
v 8.000000 -13.856402 15.999998
v 7.445000 12.895096 24.000002
v 14.890000 -0.000004 24.000000
v -7.445000 12.895096 24.000002
v -14.890000 -0.000004 24.000000
v -7.445000 -12.895103 23.999998
v 7.445000 -12.895103 23.999998
v 6.220000 10.773396 32.000000
v 12.440000 -0.000005 32.000000
v -6.220000 10.773396 32.000000
v -12.440000 -0.000005 32.000000
v -6.220000 -10.773405 31.999998
v 6.220000 -10.773405 31.999998
v 10.130600 -0.000005 31.426001
v 5.065300 8.773396 31.426003
v -5.065300 8.773396 31.426003
v -10.130600 -0.000005 31.426001
v -5.065300 -8.773405 31.425999
v 5.065300 -8.773405 31.425999
v 5.642600 9.773396 32.000000
v 11.285300 -0.000005 32.000000
v -5.642700 9.773396 32.000000
v -11.285300 -0.000005 32.000000
v -5.642600 -9.773405 31.999998
v 5.642600 -9.773405 31.999998
vn 0.837086 0.483290 -0.256353
vn 0.837084 0.483292 -0.256357
vn 0.000000 0.966584 -0.256350
vn -0.837086 0.483290 -0.256357
vn -0.837085 0.483292 -0.256354
vn -0.837086 -0.483290 -0.256353
vn -0.837084 -0.483291 -0.256357
vn 0.000000 -0.966584 -0.256350
vn 0.837086 -0.483289 -0.256357
vn 0.837085 -0.483292 -0.256354
vn 0.859840 0.496429 -0.119303
vn 0.000000 0.992858 -0.119304
vn -0.859840 0.496429 -0.119303
vn -0.859840 -0.496429 -0.119304
vn -0.859840 -0.496429 -0.119303
vn 0.000000 -0.992858 -0.119304
vn 0.000000 -0.992858 -0.119305
vn 0.859840 -0.496429 -0.119303
vn 0.859840 -0.496429 -0.119304
vn 0.859840 0.496429 0.119304
vn 0.859840 0.496430 0.119303
vn 0.000000 0.992858 0.119305
vn 0.000000 0.992858 0.119304
vn -0.859840 0.496429 0.119303
vn -0.859840 0.496429 0.119304
vn -0.859840 -0.496429 0.119303
vn 0.000000 -0.992858 0.119304
vn 0.859840 -0.496429 0.119303
vn 0.859840 -0.496429 0.119304
vn 0.837085 0.483292 0.256354
vn 0.837085 0.483290 0.256358
vn 0.000000 0.966584 0.256350
vn -0.837084 0.483292 0.256357
vn -0.837086 0.483290 0.256353
vn -0.837085 -0.483292 0.256354
vn -0.837086 -0.483290 0.256357
vn 0.000000 -0.966584 0.256350
vn 0.837084 -0.483292 0.256357
vn 0.837086 -0.483290 0.256353
vn 0.000000 -0.000000 1.000000
vn -0.000001 -0.000000 1.000000
vn -0.431135 -0.248918 0.867273
vn -0.431125 -0.248908 0.867281
vn 0.000000 -0.497818 0.867282
vn 0.431124 -0.248906 0.867282
vn 0.431110 -0.248900 0.867291
vn 0.431139 0.248918 0.867271
vn 0.431126 0.248908 0.867280
vn 0.000000 0.497819 0.867281
vn -0.431124 0.248910 0.867281
vn -0.431142 0.248916 0.867270
usemtl 05___Default
s off
f 1//1 2//1 3//1
f 4//2 1//2 3//2
f 2//3 5//3 6//3
f 6//3 3//3 2//3
f 5//4 7//4 8//4
f 8//5 6//5 5//5
f 7//6 9//6 10//6
f 10//7 8//7 7//7
f 9//8 11//8 12//8
f 12//8 10//8 9//8
f 11//9 1//9 4//9
f 4//10 12//10 11//10
f 4//11 3//11 13//11
f 13//11 14//11 4//11
f 3//12 6//12 15//12
f 15//12 13//12 3//12
f 6//13 8//13 16//13
f 16//13 15//13 6//13
f 8//14 10//14 17//14
f 17//15 16//15 8//15
f 10//16 12//16 18//16
f 18//17 17//17 10//17
f 12//18 4//18 14//18
f 14//19 18//19 12//19
f 14//20 13//20 19//20
f 19//21 20//21 14//21
f 13//22 15//22 21//22
f 21//23 19//23 13//23
f 15//24 16//24 22//24
f 22//25 21//25 15//25
f 16//26 17//26 23//26
f 23//26 22//26 16//26
f 17//27 18//27 24//27
f 24//27 23//27 17//27
f 18//28 14//28 20//28
f 20//29 24//29 18//29
f 20//30 19//30 25//30
f 25//31 26//31 20//31
f 19//32 21//32 27//32
f 27//32 25//32 19//32
f 21//33 22//33 28//33
f 28//34 27//34 21//34
f 22//35 23//35 29//35
f 29//36 28//36 22//36
f 23//37 24//37 30//37
f 30//37 29//37 23//37
f 24//38 20//38 26//38
f 26//39 30//39 24//39
f 31//40 32//40 33//40
f 33//41 34//41 35//41
f 31//40 33//40 35//40
f 36//40 31//40 35//40
f 26//40 25//40 37//40
f 37//40 38//40 26//40
f 25//40 27//40 39//40
f 39//40 37//40 25//40
f 27//40 28//40 40//40
f 40//40 39//40 27//40
f 28//40 29//40 41//40
f 41//40 40//40 28//40
f 29//40 30//40 42//40
f 42//40 41//40 29//40
f 30//40 26//40 38//40
f 38//40 42//40 30//40
f 38//42 37//42 32//42
f 32//43 31//43 38//43
f 37//44 39//44 33//44
f 33//44 32//44 37//44
f 39//45 40//45 34//45
f 34//46 33//46 39//46
f 40//47 41//47 35//47
f 35//48 34//48 40//48
f 41//49 42//49 36//49
f 36//49 35//49 41//49
f 42//50 38//50 31//50
f 31//51 36//51 42//51
