# Blender v2.69 (sub 0) OBJ File: ''
# www.blender.org
mtllib FloorTile001.mtl
o Cylinder003
v 5.783900 -6.897800 1.413499
v 6.241900 -6.615000 1.233199
v 6.252300 -6.535800 1.383699
v 5.794300 -6.818700 1.563999
v 6.181900 -6.113600 0.973799
v 6.192300 -6.034500 1.124199
v 5.664000 -5.895100 0.894599
v 5.674400 -5.816000 1.044999
v 5.206000 -6.178000 1.074899
v 5.216400 -6.098900 1.225299
v 5.266000 -6.679300 1.334299
v 5.276300 -6.600201 1.484799
vn 0.587673 -0.732033 0.344628
vn 0.587752 -0.732173 0.344195
vn 0.992520 0.065453 -0.103055
vn 0.992522 0.065461 -0.103033
vn 0.404859 0.797449 -0.447397
vn -0.587764 0.732075 -0.344381
vn -0.587764 0.732079 -0.344374
vn -0.992557 -0.065764 0.102494
vn -0.992539 -0.065290 0.102974
vn -0.404873 -0.797571 0.447167
vn -0.404825 -0.797711 0.446961
vn 0.060915 0.464598 0.883424
vn 0.060816 0.464582 0.883439
vn 0.060859 0.464564 0.883446
vn 0.060864 0.464522 0.883467
usemtl 06___Default
s off
f 1//1 2//1 3//1
f 4//2 1//2 3//2
f 2//3 5//3 6//3
f 6//4 3//4 2//4
f 5//5 7//5 8//5
f 8//5 6//5 5//5
f 7//6 9//6 10//6
f 10//7 8//7 7//7
f 9//8 11//8 12//8
f 12//9 10//9 9//9
f 11//10 1//10 4//10
f 4//11 12//11 11//11
f 3//12 6//12 8//12
f 8//13 10//13 12//13
f 3//14 8//14 12//14
f 4//15 3//15 12//15
o Box001
v 11.744100 -13.017300 0.677198
v 11.744100 -4.852000 0.677199
v 8.273800 -4.852000 0.677199
v 8.273800 -13.017300 0.677198
v 8.273800 -13.017300 -0.000002
v 11.744100 -13.017300 -0.000002
v 11.744100 -4.852000 -0.000001
v 11.744100 9.508200 0.369602
v 8.273800 9.508200 0.369602
v 8.273800 9.508200 1.046802
v 11.744100 9.508200 1.046802
v 8.273800 3.313300 0.086901
v 8.273800 3.313300 0.764101
v 11.744100 3.313300 0.764101
v 11.744100 3.313300 0.086901
v 8.273800 -4.852000 -0.000001
vn 0.000000 -0.000000 1.000000
vn 0.000000 -1.000000 0.000000
vn 1.000000 0.000000 0.000000
vn 0.000000 1.000000 0.000000
vn -1.000000 0.000000 0.000000
vn 0.000000 -0.045587 0.998960
vn 0.000000 -0.010642 0.999943
usemtl 05___Default.001
s off
f 13//16 14//16 15//16
f 16//16 13//16 15//16
f 18//17 13//17 17//17
f 13//17 16//17 17//17
f 14//18 13//18 19//18
f 13//18 18//18 19//18
f 20//19 21//19 22//19
f 22//19 23//19 20//19
f 24//20 25//20 22//20
f 22//20 21//20 24//20
f 23//21 22//21 25//21
f 25//21 26//21 23//21
f 20//18 23//18 26//18
f 26//18 27//18 20//18
f 28//20 15//20 25//20
f 25//20 24//20 28//20
f 26//22 25//22 15//22
f 15//22 14//22 26//22
f 27//18 26//18 14//18
f 14//18 19//18 27//18
f 17//20 16//20 15//20
f 15//20 28//20 17//20
o Cylinder002
v 3.642500 -6.219900 1.413499
v 3.884400 -6.700800 1.233199
v 3.962300 -6.718000 1.383699
v 3.720400 -6.237101 1.563999
v 4.389100 -6.684800 0.973799
v 4.467000 -6.702000 1.124199
v 4.651900 -6.187900 0.894599
v 4.729800 -6.205100 1.044999
v 4.410000 -5.707000 1.074899
v 4.487900 -5.724200 1.225299
v 3.905300 -5.723000 1.334299
v 3.983200 -5.740201 1.484799
vn -0.780517 -0.521726 0.344376
vn -0.780517 -0.521727 0.344375
vn -0.021266 -0.994484 -0.102713
vn -0.021255 -0.994490 -0.102656
vn 0.759190 -0.472814 -0.447300
vn 0.759192 -0.472815 -0.447295
vn 0.780424 0.521748 -0.344554
vn 0.021239 0.994489 0.102663
vn 0.021281 0.994484 0.102707
vn -0.759310 0.472841 0.447068
vn -0.759312 0.472840 0.447065
vn 0.457454 -0.101124 0.883465
vn 0.457454 -0.101123 0.883465
vn 0.457454 -0.101124 0.883464
usemtl 06___Default
s off
f 29//23 30//23 31//23
f 32//24 29//24 31//24
f 30//25 33//25 34//25
f 34//26 31//26 30//26
f 33//27 35//27 36//27
f 36//28 34//28 33//28
f 35//29 37//29 38//29
f 38//29 36//29 35//29
f 37//30 39//30 40//30
f 40//31 38//31 37//31
f 39//32 29//32 32//32
f 32//33 40//33 39//33
f 31//34 34//34 36//34
f 36//35 38//35 40//35
f 31//36 36//36 40//36
f 32//34 31//34 40//34
o Box002
v 3.604600 14.906600 0.677202
v 3.392000 6.744000 0.677201
v 6.861200 6.653600 0.677201
v 7.073800 14.816200 0.677202
v 7.073800 14.816200 0.000002
v 3.604600 14.906600 0.000002
v 3.392000 6.744000 0.000001
v 3.018200 -7.611300 0.369599
v 6.487400 -7.701600 0.369599
v 6.487400 -7.701600 1.046799
v 3.018200 -7.611300 1.046799
v 6.648600 -1.508900 0.086900
v 6.648600 -1.508900 0.764100
v 3.179500 -1.418600 0.764100
v 3.179500 -1.418600 0.086900
v 6.861200 6.653600 0.000001
vn -0.000000 -0.000000 1.000000
vn 0.026049 0.999661 0.000000
vn -0.999661 0.026037 0.000000
vn -0.026020 -0.999661 0.000000
vn 0.999661 -0.026022 -0.000000
vn 0.001186 0.045572 0.998960
vn -0.999661 0.026038 0.000000
vn 0.999661 -0.026037 0.000000
vn 0.000277 0.010638 0.999943
vn -0.999661 0.026025 0.000000
usemtl 05___Default.001
s off
f 41//37 42//37 43//37
f 44//37 41//37 43//37
f 46//38 41//38 45//38
f 41//38 44//38 45//38
f 42//39 41//39 47//39
f 41//39 46//39 47//39
f 48//40 49//40 50//40
f 50//40 51//40 48//40
f 52//41 53//41 50//41
f 50//41 49//41 52//41
f 51//42 50//42 53//42
f 53//42 54//42 51//42
f 48//43 51//43 54//43
f 54//43 55//43 48//43
f 56//44 43//44 53//44
f 53//44 52//44 56//44
f 54//45 53//45 43//45
f 43//45 42//45 54//45
f 55//46 54//46 42//46
f 42//46 47//46 55//46
f 45//44 44//44 43//44
f 43//44 56//44 45//44
o Cylinder001.001
v 10.653800 8.401600 1.316101
v 10.379800 8.867900 1.143601
v 10.330200 8.898000 1.303701
v 10.604200 8.431700 1.476201
v 9.836800 8.834500 0.981501
v 9.787100 8.864500 1.141601
v 9.567700 8.334700 0.992001
v 9.518100 8.364800 1.152101
v 9.841700 7.868400 1.164501
v 9.792100 7.898500 1.324701
v 10.384700 7.901900 1.326601
v 10.335100 7.931900 1.486701
vn 0.825968 0.542290 0.153943
vn 0.825971 0.542288 0.153932
vn -0.005010 0.982601 -0.185661
vn -0.005007 0.982485 -0.186276
vn -0.830934 0.440242 -0.340200
vn -0.830902 0.440136 -0.340415
vn -0.825996 -0.542274 -0.153850
vn -0.825956 -0.542311 -0.153933
vn 0.005177 -0.982588 0.185724
vn 0.004906 -0.982515 0.186119
vn 0.830899 -0.440309 0.340198
vn 0.831011 -0.440288 0.339952
vn -0.291495 0.176672 0.940116
vn -0.291356 0.176786 0.940137
vn -0.291456 0.176605 0.940141
vn -0.291336 0.176612 0.940176
usemtl 06___Default
s off
f 57//47 58//47 59//47
f 60//48 57//48 59//48
f 58//49 61//49 62//49
f 62//50 59//50 58//50
f 61//51 63//51 64//51
f 64//52 62//52 61//52
f 63//53 65//53 66//53
f 66//54 64//54 63//54
f 65//55 67//55 68//55
f 68//56 66//56 65//56
f 67//57 57//57 60//57
f 60//58 68//58 67//58
f 59//59 62//59 64//59
f 64//60 66//60 68//60
f 59//61 64//61 68//61
f 60//62 59//62 68//62
o Plane001
v -16.000000 16.000000 0.000003
v -16.000000 -16.000000 -0.000003
v 16.000000 16.000000 0.000003
v 16.000000 -16.000000 -0.000003
vn 0.000000 -0.000000 1.000000
usemtl 04___Default
s off
f 69//63 70//63 71//63
f 72//63 71//63 70//63
