# 3ds Max Wavefront OBJ Exporter v0.97b - (c)2007 guruware
# File Created: 22.11.2015 11:10:20

mtllib FloorTile001.mtl

#
# object Plane001
#

v  -16.0000 16.0000 0.0000
v  -16.0000 -16.0000 0.0000
v  16.0000 16.0000 0.0000
v  16.0000 -16.0000 0.0000
# 4 vertices

vn 0.0000 0.0000 1.0000
# 1 vertex normals

g Plane001
usemtl 04___Default
f 1//1 2//1 3//1 
f 4//1 3//1 2//1 
# 2 faces

#
# object Box001
#

v  11.7441 -13.0173 0.6772
v  11.7441 -4.8520 0.6772
v  8.2738 -4.8520 0.6772
v  8.2738 -13.0173 0.6772
v  8.2738 -13.0173 0.0000
v  11.7441 -13.0173 0.0000
v  11.7441 -4.8520 0.0000
v  11.7441 9.5082 0.3696
v  8.2738 9.5082 0.3696
v  8.2738 9.5082 1.0468
v  11.7441 9.5082 1.0468
v  8.2738 3.3133 0.0869
v  8.2738 3.3133 0.7641
v  11.7441 3.3133 0.7641
v  11.7441 3.3133 0.0869
v  8.2738 -4.8520 0.0000
# 16 vertices

vn 0.0000 0.0000 1.0000
vn 0.0000 -0.0053 1.0000
vn 0.0000 -1.0000 0.0000
vn 1.0000 0.0000 0.0000
vn 0.0000 1.0000 0.0000
vn -1.0000 0.0000 0.0000
vn 0.0000 -0.0456 0.9990
vn 0.0000 -0.0281 0.9996
# 8 vertex normals

g Box001
usemtl 05___Default
f 5//2 6//3 7//3 
f 7//3 8//2 5//2 
f 9//4 10//4 5//4 
f 5//4 8//4 9//4 
f 11//5 6//5 5//5 
f 5//5 10//5 11//5 
f 12//6 13//6 14//6 
f 14//6 15//6 12//6 
f 16//7 17//7 14//7 
f 14//7 13//7 16//7 
f 15//8 14//8 17//9 
f 17//9 18//9 15//8 
f 12//5 15//5 18//5 
f 18//5 19//5 12//5 
f 20//7 7//7 17//7 
f 17//7 16//7 20//7 
f 18//9 17//9 7//3 
f 7//3 6//3 18//9 
f 19//5 18//5 6//5 
f 6//5 11//5 19//5 
f 9//7 8//7 7//7 
f 7//7 20//7 9//7 
# 22 faces

#
# object Cylinder001
#

v  10.6538 8.4016 1.3161
v  10.3798 8.8679 1.1436
v  10.3302 8.8980 1.3037
v  10.6042 8.4317 1.4762
v  9.8368 8.8345 0.9815
v  9.7871 8.8645 1.1416
v  9.5677 8.3347 0.9920
v  9.5181 8.3648 1.1521
v  9.8417 7.8684 1.1645
v  9.7921 7.8985 1.3247
v  10.3847 7.9019 1.3266
v  10.3351 7.9319 1.4867
# 12 vertices

vn 0.9566 0.0589 0.2854
vn 0.4740 0.8804 -0.0185
vn -0.4826 0.8214 -0.3039
vn -0.9566 -0.0589 -0.2854
vn -0.4740 -0.8804 0.0185
vn 0.4826 -0.8214 0.3039
vn -0.2914 0.1766 0.9402
# 7 vertex normals

g Cylinder001
usemtl 06___Default
f 21//10 22//11 23//11 
f 23//11 24//10 21//10 
f 22//11 25//12 26//12 
f 26//12 23//11 22//11 
f 25//12 27//13 28//13 
f 28//13 26//12 25//12 
f 27//13 29//14 30//14 
f 30//14 28//13 27//13 
f 29//14 31//15 32//15 
f 32//15 30//14 29//14 
f 31//15 21//10 24//10 
f 24//10 32//15 31//15 
f 23//16 26//16 28//16 
f 28//16 30//16 32//16 
f 23//16 28//16 32//16 
f 24//16 23//16 32//16 
# 16 faces

#
# object Box002
#

v  3.6046 14.9066 0.6772
v  3.3920 6.7440 0.6772
v  6.8612 6.6536 0.6772
v  7.0738 14.8162 0.6772
v  7.0738 14.8162 0.0000
v  3.6046 14.9066 0.0000
v  3.3920 6.7440 0.0000
v  3.0182 -7.6113 0.3696
v  6.4874 -7.7016 0.3696
v  6.4874 -7.7016 1.0468
v  3.0182 -7.6113 1.0468
v  6.6486 -1.5089 0.0869
v  6.6486 -1.5089 0.7641
v  3.1795 -1.4186 0.7641
v  3.1795 -1.4186 0.0869
v  6.8612 6.6536 0.0000
# 16 vertices

vn 0.0000 0.0000 1.0000
vn 0.0001 0.0053 1.0000
vn 0.0260 0.9997 0.0000
vn -0.9997 0.0260 0.0000
vn -0.0260 -0.9997 0.0000
vn 0.9997 -0.0260 0.0000
vn 0.0012 0.0456 0.9990
vn 0.0007 0.0281 0.9996
# 8 vertex normals

g Box002
usemtl 05___Default
f 33//17 34//18 35//18 
f 35//18 36//17 33//17 
f 37//19 38//19 33//19 
f 33//19 36//19 37//19 
f 39//20 34//20 33//20 
f 33//20 38//20 39//20 
f 40//21 41//21 42//21 
f 42//21 43//21 40//21 
f 44//22 45//22 42//22 
f 42//22 41//22 44//22 
f 43//23 42//23 45//24 
f 45//24 46//24 43//23 
f 40//20 43//20 46//20 
f 46//20 47//20 40//20 
f 48//22 35//22 45//22 
f 45//22 44//22 48//22 
f 46//24 45//24 35//18 
f 35//18 34//18 46//24 
f 47//20 46//20 34//20 
f 34//20 39//20 47//20 
f 37//22 36//22 35//22 
f 35//22 48//22 37//22 
# 22 faces

#
# object Cylinder002
#

v  3.6425 -6.2199 1.4135
v  3.8844 -6.7008 1.2332
v  3.9623 -6.7180 1.3837
v  3.7204 -6.2371 1.5640
v  4.3891 -6.6848 0.9738
v  4.4670 -6.7020 1.1242
v  4.6519 -6.1879 0.8946
v  4.7298 -6.2051 1.0450
v  4.4100 -5.7070 1.0749
v  4.4879 -5.7242 1.2253
v  3.9053 -5.7230 1.3343
v  3.9832 -5.7402 1.4848
# 12 vertices

vn -0.8890 -0.0282 0.4570
vn -0.4629 -0.8753 0.1395
vn 0.4261 -0.8471 -0.3176
vn 0.8890 0.0282 -0.4570
vn 0.4629 0.8753 -0.1395
vn -0.4261 0.8471 0.3176
vn 0.4574 -0.1011 0.8835
# 7 vertex normals

g Cylinder002
usemtl 06___Default
f 49//25 50//26 51//26 
f 51//26 52//25 49//25 
f 50//26 53//27 54//27 
f 54//27 51//26 50//26 
f 53//27 55//28 56//28 
f 56//28 54//27 53//27 
f 55//28 57//29 58//29 
f 58//29 56//28 55//28 
f 57//29 59//30 60//30 
f 60//30 58//29 57//29 
f 59//30 49//25 52//25 
f 52//25 60//30 59//30 
f 51//31 54//31 56//31 
f 56//31 58//31 60//31 
f 51//31 56//31 60//31 
f 52//31 51//31 60//31 
# 16 faces

#
# object Cylinder003
#

v  5.7839 -6.8978 1.4135
v  6.2419 -6.6150 1.2332
v  6.2523 -6.5358 1.3837
v  5.7943 -6.8187 1.5640
v  6.1819 -6.1136 0.9738
v  6.1923 -6.0345 1.1242
v  5.6640 -5.8951 0.8946
v  5.6744 -5.8160 1.0450
v  5.2060 -6.1780 1.0749
v  5.2164 -6.0989 1.2253
v  5.2660 -6.6793 1.3343
v  5.2763 -6.6002 1.4848
# 12 vertices

vn 0.1056 -0.8832 0.4570
vn 0.9124 -0.3849 0.1395
vn 0.8068 0.4983 -0.3176
vn -0.1056 0.8832 -0.4570
vn -0.9124 0.3849 -0.1395
vn -0.8068 -0.4983 0.3176
vn 0.0609 0.4645 0.8835
# 7 vertex normals

g Cylinder003
usemtl 06___Default
f 61//32 62//33 63//33 
f 63//33 64//32 61//32 
f 62//33 65//34 66//34 
f 66//34 63//33 62//33 
f 65//34 67//35 68//35 
f 68//35 66//34 65//34 
f 67//35 69//36 70//36 
f 70//36 68//35 67//35 
f 69//36 71//37 72//37 
f 72//37 70//36 69//36 
f 71//37 61//32 64//32 
f 64//32 72//37 71//37 
f 63//38 66//38 68//38 
f 68//38 70//38 72//38 
f 63//38 68//38 72//38 
f 64//38 63//38 72//38 
# 16 faces

