# Blender v2.69 (sub 0) OBJ File: ''
# www.blender.org
mtllib GrassTile003.mtl
o Plane024.002
v 12.569300 -15.270700 -0.079102
v 13.079900 -14.386500 -0.079102
v 13.213500 -14.609600 2.219398
v 12.829400 -15.274900 2.219398
v 13.715200 -15.089701 4.428398
v 13.496000 -15.469401 4.428398
v 14.562200 -15.813701 6.461798
v 14.546500 -15.840901 6.461798
vn 0.861778 -0.497652 -0.098395
vn 0.861827 -0.497559 -0.098434
vn 0.828278 -0.478190 -0.292045
vn 0.828288 -0.478170 -0.292050
vn 0.762432 -0.440149 -0.474306
vn 0.762455 -0.440091 -0.474324
usemtl 01___Default.002
s off
f 1//1 2//1 3//1
f 4//2 1//2 3//2
f 4//3 3//3 5//3
f 5//4 6//4 4//4
f 6//5 5//5 7//5
f 7//6 8//6 6//6
o Plane010.002
v -15.388200 -11.359700 -0.079102
v -14.503900 -11.870200 -0.079102
v -14.971400 -12.427100 2.079098
v -15.636700 -12.042900 2.079098
v -16.047701 -13.961401 3.377198
v -16.427299 -13.742201 3.377198
v -17.360100 -15.827600 3.296997
v -17.387300 -15.811901 3.296997
vn -0.474530 -0.821986 -0.314897
vn -0.474654 -0.821935 -0.314844
vn -0.285491 -0.494369 -0.821033
vn -0.285477 -0.494372 -0.821036
vn 0.017636 0.030545 -0.999378
vn 0.017641 0.030548 -0.999378
usemtl 01___Default.002
s off
f 9//7 10//7 11//7
f 12//8 9//8 11//8
f 12//9 11//9 13//9
f 13//10 14//10 12//10
f 14//11 13//11 15//11
f 15//12 16//12 14//12
o Plane028.002
v 14.375400 -14.884400 -0.079102
v 15.259600 -14.373900 -0.079102
v 15.508100 -15.057200 2.079098
v 14.842800 -15.441300 2.079097
v 16.298700 -16.756399 3.377197
v 15.919100 -16.975599 3.377197
v 17.258699 -18.826200 3.296997
v 17.231600 -18.841900 3.296997
vn 0.474570 -0.821968 -0.314883
vn 0.474557 -0.821978 -0.314878
vn 0.285441 -0.494410 -0.821025
vn 0.285478 -0.494376 -0.821032
vn -0.017635 0.030544 -0.999378
vn -0.017688 0.030516 -0.999378
usemtl 01___Default.002
s off
f 17//13 18//13 19//13
f 20//14 17//14 19//14
f 20//15 19//15 21//15
f 21//16 22//16 20//16
f 22//17 21//17 23//17
f 23//18 24//18 22//18
o Plane014.002
v -5.002800 12.415300 -0.079098
v -4.417200 13.251700 -0.079098
v -4.303500 13.017800 2.219402
v -4.744100 12.388500 2.219402
v -3.845500 12.495799 4.428402
v -4.096900 12.136699 4.428402
v -3.064800 11.700699 6.461802
v -3.082800 11.674999 6.461802
vn 0.815201 -0.570757 -0.098406
vn 0.815201 -0.570757 -0.098408
vn 0.783461 -0.548534 -0.292060
vn 0.783480 -0.548502 -0.292069
vn 0.721187 -0.504891 -0.474314
vn 0.721097 -0.505037 -0.474296
usemtl 01___Default.002
s off
f 25//19 26//19 27//19
f 28//20 25//20 27//20
f 28//21 27//21 29//21
f 29//22 30//22 28//22
f 30//23 29//23 31//23
f 31//24 32//24 30//24
o Plane016.002
v -2.977200 12.141900 -0.079098
v -1.956200 12.141900 -0.079098
v -2.082600 11.914600 2.219402
v -2.850800 11.914600 2.219402
v -2.247500 11.240099 4.428402
v -2.685900 11.240099 4.428402
v -2.451000 10.144599 6.461802
v -2.482400 10.144599 6.461802
vn 0.000000 -0.995146 -0.098411
vn 0.000000 -0.956409 -0.292032
vn 0.000000 -0.956408 -0.292033
vn 0.000000 -0.880364 -0.474298
vn 0.000000 -0.880361 -0.474304
usemtl 01___Default.002
s off
f 33//25 34//25 35//25
f 36//25 33//25 35//25
f 36//26 35//26 37//26
f 37//27 38//27 36//27
f 38//28 37//28 39//28
f 39//29 40//29 38//29
o Plane031.002
v 14.573100 -14.611300 -0.079102
v 14.223900 -13.651900 -0.079102
v 14.940000 -13.525700 2.079098
v 15.202700 -14.247700 2.079098
v 16.750700 -13.042201 3.377198
v 16.900600 -13.454201 3.377198
v 18.955700 -12.456201 3.296998
v 18.966400 -12.485701 3.296998
vn 0.891881 0.324623 -0.314912
vn 0.891928 0.324529 -0.314873
vn 0.536478 0.195196 -0.821030
vn 0.536481 0.195197 -0.821028
vn -0.033145 -0.012059 -0.999378
vn -0.033155 -0.012026 -0.999378
usemtl 01___Default.002
s off
f 41//30 42//30 43//30
f 44//31 41//31 43//31
f 44//32 43//32 45//32
f 45//33 46//33 44//33
f 46//34 45//34 47//34
f 47//35 48//35 46//35
o Plane021.002
v -2.949100 12.897600 -0.079098
v -3.213400 13.883800 -0.079098
v -2.489100 13.947100 2.079102
v -2.290200 13.205000 2.079102
v -0.643100 14.270899 3.377202
v -0.529700 13.847499 3.377202
v 1.604500 14.662499 3.297002
v 1.612700 14.632199 3.297002
vn 0.916779 0.245695 -0.314880
vn 0.916770 0.245716 -0.314890
vn 0.551421 0.147794 -0.821031
vn 0.551469 0.147701 -0.821016
vn -0.034070 -0.009125 -0.999378
vn -0.034042 -0.009211 -0.999378
usemtl 01___Default.002
s off
f 49//36 50//36 51//36
f 52//37 49//37 51//37
f 52//38 51//38 53//38
f 53//39 54//39 52//39
f 54//40 53//40 55//40
f 55//41 56//41 54//41
o Plane007.002
v -13.993600 -13.263500 -0.079102
v -13.157200 -12.677900 -0.079102
v -12.850000 -13.336900 2.079098
v -13.479300 -13.777500 2.079098
v -11.914300 -14.960801 3.377198
v -12.273400 -15.212201 3.377198
v -10.777600 -16.938900 3.296997
v -10.803300 -16.956900 3.296997
vn 0.544364 -0.777502 -0.314894
vn 0.544364 -0.777503 -0.314893
vn 0.327422 -0.467648 -0.821036
vn 0.327406 -0.467668 -0.821031
vn -0.020229 0.028895 -0.999378
vn -0.020238 0.028890 -0.999378
usemtl 01___Default.002
s off
f 57//42 58//42 59//42
f 60//43 57//43 59//43
f 60//44 59//44 61//44
f 61//45 62//45 60//45
f 62//46 61//46 63//46
f 63//47 64//47 62//47
o Plane005.002
v -15.759000 -13.805700 -0.079102
v -15.327500 -12.880400 -0.079102
v -15.175000 -13.091000 2.219398
v -15.499600 -13.787200 2.219398
v -14.633300 -13.525501 4.428398
v -14.818600 -13.922801 4.428398
v -13.726400 -14.172901 6.461798
v -13.739700 -14.201401 6.461798
vn 0.901903 -0.420587 -0.098375
vn 0.901931 -0.420521 -0.098404
vn 0.866814 -0.404147 -0.292059
vn 0.866773 -0.404259 -0.292027
vn 0.797844 -0.372113 -0.474316
vn 0.797758 -0.372319 -0.474300
usemtl 01___Default.002
s off
f 65//48 66//48 67//48
f 68//49 65//49 67//49
f 68//50 67//50 69//50
f 69//51 70//51 68//51
f 70//52 69//52 71//52
f 71//53 72//53 70//53
o Plane027.002
v 15.298500 -13.268200 -0.079102
v 14.373100 -13.699700 -0.079102
v 14.185100 -12.997400 2.079098
v 14.881300 -12.672700 2.079098
v 13.545600 -11.235701 3.377198
v 13.942900 -11.050501 3.377198
v 12.769600 -9.090201 3.296999
v 12.798100 -9.076900 3.296999
vn -0.401108 0.860217 -0.314865
vn -0.401176 0.860175 -0.314893
vn -0.241301 0.517379 -0.821031
vn -0.241207 0.517451 -0.821014
vn 0.014902 -0.031967 -0.999378
vn 0.014921 -0.031963 -0.999378
usemtl 01___Default.002
s off
f 73//54 74//54 75//54
f 76//55 73//55 75//55
f 76//56 75//56 77//56
f 77//57 78//57 76//57
f 78//58 77//58 79//58
f 79//59 80//59 78//59
o Plane008.002
v -13.716800 -13.723200 -0.079102
v -12.711300 -13.546000 -0.079102
v -12.796300 -13.791700 2.219398
v -13.552800 -13.925100 2.219398
v -12.841600 -14.484701 4.428398
v -13.273300 -14.560801 4.428398
v -12.851700 -15.598901 6.461798
v -12.882600 -15.604300 6.461798
vn 0.172715 -0.980047 -0.098376
vn 0.172816 -0.980025 -0.098416
vn 0.166087 -0.941864 -0.292073
vn 0.166033 -0.941878 -0.292060
vn 0.152832 -0.866992 -0.474308
vn 0.151549 -0.867271 -0.474208
usemtl 01___Default.002
s off
f 81//60 82//60 83//60
f 84//61 81//61 83//61
f 84//62 83//62 85//62
f 85//63 86//63 84//63
f 86//64 85//64 87//64
f 87//65 88//65 86//65
o Plane011.002
v -13.820300 -12.974200 -0.079102
v -14.251800 -12.048800 -0.079102
v -13.549500 -11.860800 2.079098
v -13.224800 -12.557000 2.079098
v -11.787800 -11.221301 3.377198
v -11.602600 -11.618601 3.377198
v -9.642300 -10.445301 3.296998
v -9.629100 -10.473801 3.296998
vn 0.860217 0.401108 -0.314863
vn 0.860175 0.401174 -0.314894
vn 0.517380 0.241300 -0.821031
vn 0.517449 0.241205 -0.821015
vn -0.031968 -0.014902 -0.999378
vn -0.032009 -0.014826 -0.999378
usemtl 01___Default.002
s off
f 89//66 90//66 91//66
f 92//67 89//67 91//67
f 92//68 91//68 93//68
f 93//69 94//69 92//69
f 94//70 93//70 95//70
f 95//71 96//71 94//71
o Plane003.002
v -13.928500 -14.061300 -0.079102
v -14.914700 -13.797000 -0.079102
v -14.662000 -13.342200 2.159098
v -13.919900 -13.541100 2.159098
v -14.135400 -12.014201 3.962098
v -13.712000 -12.127601 3.962098
v -13.406400 -10.079901 4.978399
v -13.376100 -10.088001 4.978399
vn 0.252523 0.942254 -0.219975
vn 0.252545 0.942250 -0.219967
vn 0.203434 0.759019 -0.618470
vn 0.203293 0.759030 -0.618502
vn 0.114596 0.427865 -0.896549
vn 0.114415 0.427897 -0.896556
usemtl 01___Default.002
s off
f 97//72 98//72 99//72
f 100//73 97//73 99//73
f 100//74 99//74 101//74
f 101//75 102//75 100//75
f 102//76 101//76 103//76
f 103//77 104//77 102//77
o Plane001.004
v 16.000000 16.000000 0.000003
v 8.000000 16.000000 0.000003
v 8.000000 8.787900 0.084301
v 16.000000 8.000000 0.000001
v 0.000000 16.000000 0.000003
v 0.445600 8.000000 0.000001
v -8.000000 16.000000 0.000003
v -8.246100 8.084900 0.660001
v -16.000000 16.000000 0.000003
v -16.000000 8.000000 0.000001
v 8.726500 0.117700 0.446300
v 16.000000 0.000000 0.000000
v 0.000000 -0.272000 1.226600
v -6.657800 0.129600 1.702700
v -16.000000 0.000000 0.000000
v 8.000000 -8.218900 0.686699
v 16.000000 -8.000000 -0.000001
v -0.849500 -8.010500 0.478199
v -8.000000 -8.050300 0.659599
v -16.000000 -8.000000 -0.000001
v 8.000000 -16.000000 -0.000003
v 16.000000 -16.000000 -0.000003
v 0.000000 -16.000000 -0.000003
v -8.000000 -16.000000 -0.000003
v -16.000000 -16.000000 -0.000003
vn 0.000000 0.011688 0.999932
vn 0.010537 -0.000000 0.999945
vn 0.000000 -0.000000 1.000000
vn -0.012376 0.011687 0.999855
vn 0.000000 0.083096 0.996542
vn 0.075757 0.004219 0.997117
vn -0.085430 0.085430 0.992675
vn 0.014756 0.042945 0.998968
vn 0.061245 -0.000000 0.998123
vn -0.026471 0.148023 0.988630
vn 0.086793 0.048817 0.995030
vn 0.076325 0.144545 0.986550
vn 0.079127 0.142047 0.986692
vn -0.084812 -0.000000 0.996397
vn -0.179778 0.092470 0.979351
vn 0.061605 0.023405 0.997826
vn 0.085523 -0.000000 0.996336
vn 0.093255 -0.105980 0.989986
vn -0.022818 0.030804 0.999265
vn 0.062478 -0.136330 0.988691
vn 0.025787 -0.099034 0.994750
vn -0.179305 -0.000000 0.983794
vn -0.082351 -0.112758 0.990204
vn 0.087573 -0.087573 0.992301
vn -0.024976 -0.062374 0.997740
vn 0.000000 -0.087911 0.996128
vn 0.025734 -0.082660 0.996245
vn 0.000000 -0.059747 0.998214
vn -0.082171 -0.000000 0.996618
vn 0.000000 -0.082688 0.996575
usemtl 01___Default.002
s off
f 105//78 106//78 107//78
f 108//79 105//79 107//79
f 106//80 109//80 110//80
f 110//81 107//81 106//81
f 109//82 111//82 112//82
f 112//83 110//83 109//83
f 111//80 113//80 114//80
f 114//84 112//84 111//84
f 108//85 107//85 115//85
f 115//86 116//86 108//86
f 107//87 110//87 117//87
f 117//88 115//88 107//88
f 110//89 112//89 118//89
f 118//90 117//90 110//90
f 112//91 114//91 119//91
f 119//92 118//92 112//92
f 116//93 115//93 120//93
f 120//94 121//94 116//94
f 115//95 117//95 122//95
f 122//96 120//96 115//96
f 117//97 118//97 123//97
f 123//98 122//98 117//98
f 118//99 119//99 124//99
f 124//100 123//100 118//100
f 121//101 120//101 125//101
f 125//80 126//80 121//80
f 120//102 122//102 127//102
f 127//103 125//103 120//103
f 122//104 123//104 128//104
f 128//105 127//105 122//105
f 123//106 124//106 129//106
f 129//107 128//107 123//107
o Plane013.002
v -3.631400 12.811700 -0.079098
v -3.120900 13.696000 -0.079098
v -2.987300 13.472900 2.219402
v -3.371400 12.807600 2.219402
v -2.485600 12.992799 4.428402
v -2.704800 12.613099 4.428402
v -1.638600 12.268799 6.461802
v -1.654300 12.241599 6.461802
vn 0.861845 -0.497537 -0.098388
vn 0.861831 -0.497564 -0.098374
vn 0.828277 -0.478193 -0.292043
vn 0.828288 -0.478168 -0.292053
vn 0.762432 -0.440151 -0.474304
vn 0.762467 -0.440100 -0.474295
usemtl 01___Default.002
s off
f 130//108 131//108 132//108
f 133//109 130//109 132//109
f 133//110 132//110 134//110
f 134//111 135//111 133//111
f 135//112 134//112 136//112
f 136//113 137//113 135//113
o Plane009.002
v -16.391199 -13.386800 -0.079102
v -15.506900 -12.876300 -0.079102
v -15.364000 -13.376600 2.159098
v -16.029400 -13.760700 2.159098
v -14.797300 -14.688001 3.962098
v -15.177000 -14.907201 3.962098
v -13.945000 -16.571199 4.978397
v -13.972200 -16.586901 4.978397
vn 0.487714 -0.844833 -0.219982
vn 0.487687 -0.844852 -0.219969
vn 0.392850 -0.680558 -0.618474
vn 0.392873 -0.680535 -0.618484
vn 0.221457 -0.383608 -0.896550
vn 0.221449 -0.383634 -0.896541
usemtl 01___Default.002
s off
f 138//114 139//114 140//114
f 141//115 138//115 140//115
f 141//116 140//116 142//116
f 142//117 143//117 141//117
f 143//118 142//118 144//118
f 144//119 145//119 143//119
o Plane030.002
v 13.152000 -12.866300 -0.079102
v 13.988400 -13.451900 -0.079102
v 13.474200 -13.966000 2.079098
v 12.844800 -13.525300 2.079098
v 12.268300 -15.400601 3.377197
v 11.909200 -15.149201 3.377198
v 10.798100 -17.145399 3.296997
v 10.772400 -17.127399 3.296997
vn -0.544361 -0.777500 -0.314903
vn -0.544387 -0.777487 -0.314891
vn -0.327448 -0.467654 -0.821022
vn -0.327408 -0.467675 -0.821027
vn 0.020228 0.028893 -0.999378
vn 0.020237 0.028890 -0.999378
usemtl 01___Default.002
s off
f 146//120 147//120 148//120
f 149//121 146//121 148//121
f 149//122 148//122 150//122
f 150//123 151//123 149//123
f 151//124 150//124 152//124
f 152//125 153//125 151//125
o Plane025.002
v 13.751100 -14.317800 -0.079102
v 13.751100 -13.296800 -0.079102
v 14.255800 -13.423100 2.159098
v 14.255800 -14.191400 2.159098
v 15.674900 -13.588101 3.962098
v 15.674900 -14.026501 3.962098
v 17.732000 -13.791601 4.978398
v 17.732000 -13.823001 4.978398
vn 0.975506 -0.000002 -0.219971
vn 0.975506 0.000000 -0.219971
vn 0.785799 -0.000002 -0.618482
vn 0.785798 0.000004 -0.618483
vn 0.442938 0.000000 -0.896552
vn 0.442926 0.000000 -0.896558
usemtl 01___Default.002
s off
f 154//126 155//126 156//126
f 157//127 154//127 156//127
f 157//128 156//128 158//128
f 158//129 159//129 157//129
f 159//130 158//130 160//130
f 160//131 161//131 159//131
o Plane018.002
v -3.170000 12.642700 -0.079098
v -2.244600 13.074200 -0.079098
v -2.056600 12.371900 2.079102
v -2.752800 12.047200 2.079102
v -1.417100 10.610199 3.377202
v -1.814400 10.424999 3.377202
v -0.641100 8.464699 3.297001
v -0.669600 8.451399 3.297001
vn 0.401106 -0.860218 -0.314864
vn 0.401175 -0.860175 -0.314894
vn 0.241300 -0.517380 -0.821031
vn 0.241208 -0.517451 -0.821014
vn -0.014901 0.031968 -0.999378
vn -0.014921 0.031960 -0.999378
usemtl 01___Default.002
s off
f 162//132 163//132 164//132
f 165//133 162//133 164//133
f 165//134 164//134 166//134
f 166//135 167//135 165//135
f 167//136 166//136 168//136
f 168//137 169//137 167//137
o Plane022.002
v 14.370700 -15.684800 -0.079103
v 13.411200 -15.335600 -0.079102
v 13.702600 -14.904600 2.159098
v 14.424500 -15.167400 2.159098
v 14.343000 -13.627501 3.962098
v 14.754900 -13.777401 3.962098
v 15.237700 -11.764101 4.978398
v 15.267200 -11.774801 4.978398
vn 0.333619 0.916688 -0.219957
vn 0.333702 0.916666 -0.219925
vn 0.268802 0.738389 -0.618488
vn 0.268723 0.738402 -0.618507
vn 0.151481 0.416245 -0.896545
vn 0.151038 0.416374 -0.896560
usemtl 01___Default.002
s off
f 170//138 171//138 172//138
f 173//139 170//139 172//139
f 173//140 172//140 174//140
f 174//141 175//141 173//141
f 175//142 174//142 176//142
f 176//143 177//143 175//143
o Plane002.002
v -13.214800 -11.573000 -0.079102
v -14.099000 -12.083500 -0.079102
v -14.347600 -11.400200 2.079098
v -13.682300 -11.016100 2.079098
v -15.138200 -9.701001 3.377198
v -14.758600 -9.481801 3.377198
v -16.098200 -7.631300 3.296999
v -16.070999 -7.615601 3.296999
vn -0.474567 0.821962 -0.314903
vn -0.474551 0.821974 -0.314897
vn -0.285440 0.494413 -0.821024
vn -0.285478 0.494378 -0.821032
vn 0.017638 -0.030544 -0.999378
vn 0.017628 -0.030548 -0.999378
usemtl 01___Default.002
s off
f 178//144 179//144 180//144
f 181//145 178//145 180//145
f 181//146 180//146 182//146
f 182//147 183//147 181//147
f 183//148 182//148 184//148
f 184//149 185//149 183//149
o Plane026.002
v 14.611000 -15.366600 -0.079103
v 15.628200 -15.277600 -0.079102
v 15.522100 -15.515000 2.219397
v 14.756700 -15.582000 2.219397
v 15.416500 -16.201401 4.428397
v 14.979800 -16.239599 4.428397
v 15.309300 -17.310501 6.461797
v 15.278000 -17.313202 6.461797
vn 0.086739 -0.991361 -0.098389
vn 0.086778 -0.991356 -0.098404
vn 0.083400 -0.952756 -0.292063
vn 0.083339 -0.952766 -0.292047
vn 0.076713 -0.877008 -0.474313
vn 0.075694 -0.877147 -0.474219
usemtl 01___Default.002
s off
f 186//150 187//150 188//150
f 189//151 186//151 188//151
f 189//152 188//152 190//152
f 190//153 191//153 189//153
f 191//154 190//154 192//154
f 192//155 193//155 191//155
o Plane006.002
v -14.664800 -12.753400 -0.079102
v -14.753800 -11.736300 -0.079102
v -14.240000 -11.818200 2.159098
v -14.173000 -12.583500 2.159098
v -12.811900 -11.858801 3.962098
v -12.773700 -12.295501 3.962098
v -10.745000 -11.882301 4.978398
v -10.742200 -11.913501 4.978398
vn 0.971793 0.085034 -0.219973
vn 0.971785 0.085080 -0.219988
vn 0.782800 0.068532 -0.618487
vn 0.782813 0.068476 -0.618478
vn 0.441271 0.038599 -0.896543
vn 0.441104 0.039589 -0.896582
usemtl 01___Default.002
s off
f 194//156 195//156 196//156
f 197//157 194//157 196//157
f 197//158 196//158 198//158
f 198//159 199//159 197//159
f 199//160 198//160 200//160
f 200//161 201//161 199//161
o Plane012.002
v -3.244400 11.845800 -0.079098
v -4.169800 12.277300 -0.079098
v -3.841900 12.681300 2.159102
v -3.145700 12.356600 2.159102
v -3.092700 13.897699 3.962102
v -2.695400 13.712499 3.962102
v -2.038900 15.675999 4.978403
v -2.010500 15.662799 4.978403
vn 0.412249 0.884115 -0.219980
vn 0.412328 0.884086 -0.219948
vn 0.332143 0.712159 -0.618475
vn 0.331992 0.712201 -0.618507
vn 0.187147 0.401475 -0.896545
vn 0.186671 0.401643 -0.896569
usemtl 01___Default.002
s off
f 202//162 203//162 204//162
f 205//163 202//163 204//163
f 205//164 204//164 206//164
f 206//165 207//165 205//165
f 207//166 206//166 208//166
f 208//167 209//167 207//167
o Plane023.002
v 13.900900 -14.756300 -0.079102
v 14.332400 -13.831000 -0.079102
v 14.485000 -14.041600 2.219398
v 14.160300 -14.737800 2.219398
v 15.026600 -14.476101 4.428398
v 14.841400 -14.873401 4.428398
v 15.933500 -15.123501 6.461798
v 15.920200 -15.152001 6.461798
vn 0.901898 -0.420588 -0.098414
vn 0.901882 -0.420628 -0.098397
vn 0.866774 -0.404254 -0.292030
vn 0.866840 -0.404079 -0.292076
vn 0.797929 -0.371953 -0.474300
vn 0.797783 -0.372266 -0.474299
usemtl 01___Default.002
s off
f 210//168 211//168 212//168
f 213//169 210//169 212//169
f 213//170 212//170 214//170
f 214//171 215//171 213//171
f 215//172 214//172 216//172
f 216//173 217//173 215//173
o Plane017.002
v -2.109500 14.172300 -0.079098
v -3.068900 13.823100 -0.079098
v -3.195100 14.539200 2.079102
v -2.473200 14.801900 2.079102
v -3.678600 16.349899 3.377203
v -3.266700 16.499800 3.377203
v -4.264600 18.554899 3.297003
v -4.235100 18.565599 3.297003
vn -0.324624 0.891880 -0.314912
vn -0.324567 0.891909 -0.314888
vn -0.195222 0.536471 -0.821028
vn -0.195232 0.536463 -0.821031
vn 0.012062 -0.033144 -0.999378
vn 0.012030 -0.033159 -0.999378
usemtl 01___Default.002
s off
f 218//174 219//174 220//174
f 221//175 218//175 220//175
f 221//176 220//176 222//176
f 222//177 223//177 221//177
f 223//178 222//178 224//178
f 224//179 225//179 223//179
o Plane029.002
v 11.976100 -14.798300 -0.079102
v 12.901500 -14.366800 -0.079102
v 13.000200 -14.877600 2.159098
v 12.304000 -15.202300 2.159098
v 13.450500 -16.233500 3.962097
v 13.053200 -16.418699 3.962097
v 14.135400 -18.183800 4.978397
v 14.107000 -18.197100 4.978397
vn 0.412253 -0.884120 -0.219953
vn 0.412325 -0.884079 -0.219984
vn 0.332136 -0.712141 -0.618499
vn 0.332004 -0.712231 -0.618466
vn 0.187143 -0.401471 -0.896548
vn 0.187825 -0.401041 -0.896598
usemtl 01___Default.002
s off
f 226//180 227//180 228//180
f 229//181 226//181 228//181
f 229//182 228//182 230//182
f 230//183 231//183 229//183
f 231//184 230//184 232//184
f 232//185 233//185 231//185
o Plane015.002
v -3.742400 13.261700 -0.079098
v -3.653400 14.278800 -0.079098
v -3.161700 14.108900 2.159102
v -3.228600 13.343600 2.159102
v -1.762300 13.820899 3.962102
v -1.800600 13.384199 3.962102
v 0.269100 13.438899 4.978403
v 0.266400 13.407599 4.978403
vn 0.971799 -0.085036 -0.219945
vn 0.971799 -0.084951 -0.219977
vn 0.782800 -0.068429 -0.618500
vn 0.782816 -0.068656 -0.618454
vn 0.441259 -0.038700 -0.896545
vn 0.441281 -0.038066 -0.896561
usemtl 01___Default.002
s off
f 234//186 235//186 236//186
f 237//187 234//187 236//187
f 237//188 236//188 238//188
f 238//189 239//189 237//189
f 239//190 238//190 240//190
f 240//191 241//191 239//191
o Plane019.002
v -5.552600 12.937700 -0.079098
v -4.593100 13.286900 -0.079098
v -4.539300 12.769400 2.159102
v -5.261200 12.506600 2.159102
v -4.208900 11.379399 3.962102
v -4.620800 11.229499 3.962102
v -3.696600 9.376899 4.978402
v -3.726100 9.366099 4.978402
vn 0.333618 -0.916686 -0.219968
vn 0.333696 -0.916650 -0.220001
vn 0.268798 -0.738379 -0.618501
vn 0.268728 -0.738418 -0.618485
vn 0.151485 -0.416254 -0.896540
vn 0.152247 -0.415901 -0.896575
usemtl 01___Default.002
s off
f 242//192 243//192 244//192
f 245//193 242//193 244//193
f 245//194 244//194 246//194
f 246//195 247//195 245//195
f 247//196 246//196 248//196
f 248//197 249//197 247//197
o Plane020.002
v -4.212800 14.759800 -0.079098
v -3.430600 14.103500 -0.079098
v -3.987700 13.636300 2.079102
v -4.576200 14.130100 2.079102
v -5.314000 12.312199 3.377202
v -5.649900 12.593999 3.377202
v -6.930600 10.702199 3.297002
v -6.954700 10.722399 3.297002
vn -0.610066 -0.727098 -0.314878
vn -0.610086 -0.727085 -0.314870
vn -0.366960 -0.437333 -0.821024
vn -0.366917 -0.437356 -0.821031
vn 0.022668 0.027021 -0.999378
vn 0.022659 0.027030 -0.999378
usemtl 01___Default.002
s off
f 250//198 251//198 252//198
f 253//199 250//199 252//199
f 253//200 252//200 254//200
f 254//201 255//201 253//201
f 255//202 254//202 256//202
f 256//203 257//203 255//203
o Plane004.002
v -14.477400 -13.177200 -0.079102
v -14.128200 -12.217800 -0.079102
v -13.957800 -12.414300 2.219398
v -14.220600 -13.136200 2.219398
v -13.380300 -12.800001 4.428398
v -13.530300 -13.211901 4.428398
v -12.420500 -13.365901 6.461798
v -12.431200 -13.395401 6.461798
vn 0.935129 -0.340362 -0.098424
vn 0.935110 -0.340419 -0.098404
vn 0.898700 -0.327159 -0.292072
vn 0.898669 -0.327267 -0.292043
vn 0.827219 -0.301244 -0.474300
vn 0.827535 -0.300180 -0.474425
usemtl 01___Default.002
s off
f 258//204 259//204 260//204
f 261//205 258//205 260//205
f 261//206 260//206 262//206
f 262//207 263//207 261//207
f 263//208 262//208 264//208
f 264//209 265//209 263//209
