# 3ds Max Wavefront OBJ Exporter v0.97b - (c)2007 guruware
# File Created: 22.11.2015 11:04:04

mtllib RoadTile002.mtl

#
# object Plane001
#

v  -16.0000 16.0000 0.0000
v  -16.0000 -16.0000 0.0000
v  16.0000 16.0000 0.0000
v  16.0000 -16.0000 0.0000
# 4 vertices

vn 0.0000 0.0000 1.0000
# 1 vertex normals

g Plane001
usemtl 02___Default
f 1//1 2//1 3//1 
f 4//1 3//1 2//1 
# 2 faces

#
# object Brick
#

v  3.6510 7.5610 0.6729
v  6.3516 7.5610 0.6729
v  6.3516 14.1642 0.6729
v  3.6510 14.1642 0.6729
v  3.6510 7.2740 0.0000
v  6.3516 7.2740 0.0000
v  6.3516 7.2740 0.3859
v  3.6510 7.2740 0.3859
v  6.6386 7.5610 0.0000
v  6.6386 14.1642 0.0000
v  6.6386 14.1642 0.3859
v  6.6386 7.5610 0.3859
v  6.3516 14.4512 0.0000
v  3.6510 14.4512 0.0000
v  3.6510 14.4512 0.3859
v  6.3516 14.4512 0.3859
v  3.3640 14.1642 0.0000
v  3.3640 7.5610 0.0000
v  3.3640 7.5610 0.3859
v  3.3640 14.1642 0.3859
# 20 vertices

vn 0.0000 0.0000 1.0000
vn 0.0000 -1.0000 0.0000
vn 1.0000 0.0000 0.0000
vn 0.0000 1.0000 0.0000
vn -1.0000 0.0000 0.0000
vn -0.5774 -0.5774 0.5774
vn 0.5774 -0.5774 0.5774
vn -0.5774 0.5774 0.5774
vn 0.5774 0.5774 0.5774
vn 0.0000 -0.7071 0.7071
vn 0.7071 0.0000 0.7071
vn 0.0000 0.7071 0.7071
vn -0.7071 0.0000 0.7071
vn 0.7071 -0.7071 0.0000
vn -0.7071 -0.7071 0.0000
vn 0.7071 0.7071 0.0000
vn -0.7071 0.7071 0.0000
# 17 vertex normals

g Brick
usemtl 03___Default
f 5//2 6//2 7//2 
f 7//2 8//2 5//2 
f 9//3 10//3 11//3 
f 11//3 12//3 9//3 
f 13//4 14//4 15//4 
f 15//4 16//4 13//4 
f 17//5 18//5 19//5 
f 19//5 20//5 17//5 
f 21//6 22//6 23//6 
f 23//6 24//6 21//6 
f 12//7 5//7 23//7 
f 16//8 6//8 11//8 
f 24//9 8//9 19//9 
f 20//10 7//10 15//10 
f 5//11 12//11 11//11 
f 11//11 6//11 5//11 
f 6//12 16//12 15//12 
f 15//12 7//12 6//12 
f 7//13 20//13 19//13 
f 19//13 8//13 7//13 
f 8//14 24//14 23//14 
f 23//14 5//14 8//14 
f 10//15 13//15 16//15 
f 16//15 11//15 10//15 
f 12//16 23//16 22//16 
f 22//16 9//16 12//16 
f 14//17 17//17 20//17 
f 20//17 15//17 14//17 
f 18//18 21//18 24//18 
f 24//18 19//18 18//18 
# 30 faces

#
# object Brick001
#

v  -0.8550 -6.7624 0.6729
v  1.8457 -6.7624 0.6729
v  1.8457 -0.1591 0.6729
v  -0.8550 -0.1591 0.6729
v  -0.8550 -7.0493 0.0000
v  1.8457 -7.0493 0.0000
v  1.8457 -7.0493 0.3859
v  -0.8550 -7.0493 0.3859
v  2.1327 -6.7624 0.0000
v  2.1327 -0.1591 0.0000
v  2.1327 -0.1591 0.3859
v  2.1327 -6.7624 0.3859
v  1.8457 0.1279 0.0000
v  -0.8550 0.1279 0.0000
v  -0.8550 0.1279 0.3859
v  1.8457 0.1279 0.3859
v  -1.1419 -0.1591 0.0000
v  -1.1419 -6.7624 0.0000
v  -1.1419 -6.7624 0.3859
v  -1.1419 -0.1591 0.3859
# 20 vertices

vn 0.0000 0.0000 1.0000
vn 0.0000 -1.0000 0.0000
vn 1.0000 0.0000 0.0000
vn 0.0000 1.0000 0.0000
vn -1.0000 0.0000 0.0000
vn -0.5774 -0.5774 0.5774
vn 0.5774 -0.5774 0.5774
vn -0.5774 0.5774 0.5774
vn 0.5774 0.5774 0.5774
vn 0.0000 -0.7071 0.7071
vn 0.7071 0.0000 0.7071
vn 0.0000 0.7071 0.7071
vn -0.7071 0.0000 0.7071
vn 0.7071 -0.7071 0.0000
vn -0.7071 -0.7071 0.0000
vn 0.7071 0.7071 0.0000
vn -0.7071 0.7071 0.0000
# 17 vertex normals

g Brick001
usemtl 03___Default
f 25//19 26//19 27//19 
f 27//19 28//19 25//19 
f 29//20 30//20 31//20 
f 31//20 32//20 29//20 
f 33//21 34//21 35//21 
f 35//21 36//21 33//21 
f 37//22 38//22 39//22 
f 39//22 40//22 37//22 
f 41//23 42//23 43//23 
f 43//23 44//23 41//23 
f 32//24 25//24 43//24 
f 36//25 26//25 31//25 
f 44//26 28//26 39//26 
f 40//27 27//27 35//27 
f 25//28 32//28 31//28 
f 31//28 26//28 25//28 
f 26//29 36//29 35//29 
f 35//29 27//29 26//29 
f 27//30 40//30 39//30 
f 39//30 28//30 27//30 
f 28//31 44//31 43//31 
f 43//31 25//31 28//31 
f 30//32 33//32 36//32 
f 36//32 31//32 30//32 
f 32//33 43//33 42//33 
f 42//33 29//33 32//33 
f 34//34 37//34 40//34 
f 40//34 35//34 34//34 
f 38//35 41//35 44//35 
f 44//35 39//35 38//35 
# 30 faces

#
# object Brick002
#

v  -7.6808 -14.1984 0.6729
v  -4.9802 -14.1984 0.6729
v  -4.9802 -7.5951 0.6729
v  -7.6808 -7.5951 0.6729
v  -7.6808 -14.4854 0.0000
v  -4.9802 -14.4854 0.0000
v  -4.9802 -14.4854 0.3859
v  -7.6808 -14.4854 0.3859
v  -4.6932 -14.1984 0.0000
v  -4.6932 -7.5951 0.0000
v  -4.6932 -7.5951 0.3859
v  -4.6932 -14.1984 0.3859
v  -4.9802 -7.3082 0.0000
v  -7.6808 -7.3082 0.0000
v  -7.6808 -7.3082 0.3859
v  -4.9802 -7.3082 0.3859
v  -7.9678 -7.5951 0.0000
v  -7.9678 -14.1984 0.0000
v  -7.9678 -14.1984 0.3859
v  -7.9678 -7.5951 0.3859
# 20 vertices

vn 0.0000 0.0000 1.0000
vn 0.0000 -1.0000 0.0000
vn 1.0000 0.0000 0.0000
vn 0.0000 1.0000 0.0000
vn -1.0000 0.0000 0.0000
vn -0.5774 -0.5774 0.5774
vn 0.5774 -0.5774 0.5774
vn -0.5774 0.5774 0.5774
vn 0.5774 0.5774 0.5774
vn 0.0000 -0.7071 0.7071
vn 0.7071 0.0000 0.7071
vn 0.0000 0.7071 0.7071
vn -0.7071 0.0000 0.7071
vn 0.7071 -0.7071 0.0000
vn -0.7071 -0.7071 0.0000
vn 0.7071 0.7071 0.0000
vn -0.7071 0.7071 0.0000
# 17 vertex normals

g Brick002
usemtl 03___Default
f 45//36 46//36 47//36 
f 47//36 48//36 45//36 
f 49//37 50//37 51//37 
f 51//37 52//37 49//37 
f 53//38 54//38 55//38 
f 55//38 56//38 53//38 
f 57//39 58//39 59//39 
f 59//39 60//39 57//39 
f 61//40 62//40 63//40 
f 63//40 64//40 61//40 
f 52//41 45//41 63//41 
f 56//42 46//42 51//42 
f 64//43 48//43 59//43 
f 60//44 47//44 55//44 
f 45//45 52//45 51//45 
f 51//45 46//45 45//45 
f 46//46 56//46 55//46 
f 55//46 47//46 46//46 
f 47//47 60//47 59//47 
f 59//47 48//47 47//47 
f 48//48 64//48 63//48 
f 63//48 45//48 48//48 
f 50//49 53//49 56//49 
f 56//49 51//49 50//49 
f 52//50 63//50 62//50 
f 62//50 49//50 52//50 
f 54//51 57//51 60//51 
f 60//51 55//51 54//51 
f 58//52 61//52 64//52 
f 64//52 59//52 58//52 
# 30 faces

#
# object Brick003
#

v  -11.5113 -1.1793 0.6729
v  -8.8107 -1.1793 0.6729
v  -8.8107 5.4240 0.6729
v  -11.5113 5.4240 0.6729
v  -11.5113 -1.4662 0.0000
v  -8.8107 -1.4662 0.0000
v  -8.8107 -1.4662 0.3859
v  -11.5113 -1.4662 0.3859
v  -8.5237 -1.1793 0.0000
v  -8.5237 5.4240 0.0000
v  -8.5237 5.4240 0.3859
v  -8.5237 -1.1793 0.3859
v  -8.8107 5.7110 0.0000
v  -11.5113 5.7110 0.0000
v  -11.5113 5.7110 0.3859
v  -8.8107 5.7110 0.3859
v  -11.7983 5.4240 0.0000
v  -11.7983 -1.1793 0.0000
v  -11.7983 -1.1793 0.3859
v  -11.7983 5.4240 0.3859
# 20 vertices

vn 0.0000 0.0000 1.0000
vn 0.0000 -1.0000 0.0000
vn 1.0000 0.0000 0.0000
vn 0.0000 1.0000 0.0000
vn -1.0000 0.0000 0.0000
vn -0.5774 -0.5774 0.5774
vn 0.5774 -0.5774 0.5774
vn -0.5774 0.5774 0.5774
vn 0.5774 0.5774 0.5774
vn 0.0000 -0.7071 0.7071
vn 0.7071 0.0000 0.7071
vn 0.0000 0.7071 0.7071
vn -0.7071 0.0000 0.7071
vn 0.7071 -0.7071 0.0000
vn -0.7071 -0.7071 0.0000
vn 0.7071 0.7071 0.0000
vn -0.7071 0.7071 0.0000
# 17 vertex normals

g Brick003
usemtl 03___Default
f 65//53 66//53 67//53 
f 67//53 68//53 65//53 
f 69//54 70//54 71//54 
f 71//54 72//54 69//54 
f 73//55 74//55 75//55 
f 75//55 76//55 73//55 
f 77//56 78//56 79//56 
f 79//56 80//56 77//56 
f 81//57 82//57 83//57 
f 83//57 84//57 81//57 
f 72//58 65//58 83//58 
f 76//59 66//59 71//59 
f 84//60 68//60 79//60 
f 80//61 67//61 75//61 
f 65//62 72//62 71//62 
f 71//62 66//62 65//62 
f 66//63 76//63 75//63 
f 75//63 67//63 66//63 
f 67//64 80//64 79//64 
f 79//64 68//64 67//64 
f 68//65 84//65 83//65 
f 83//65 65//65 68//65 
f 70//66 73//66 76//66 
f 76//66 71//66 70//66 
f 72//67 83//67 82//67 
f 82//67 69//67 72//67 
f 74//68 77//68 80//68 
f 80//68 75//68 74//68 
f 78//69 81//69 84//69 
f 84//69 79//69 78//69 
# 30 faces

#
# object Brick004
#

v  0.2859 3.1459 0.6729
v  2.9865 3.1459 0.6729
v  2.9865 9.7492 0.6729
v  0.2859 9.7492 0.6729
v  0.2859 2.8589 0.0000
v  2.9865 2.8589 0.0000
v  2.9865 2.8589 0.3859
v  0.2859 2.8589 0.3859
v  3.2735 3.1459 0.0000
v  3.2735 9.7492 0.0000
v  3.2735 9.7492 0.3859
v  3.2735 3.1459 0.3859
v  2.9865 10.0362 0.0000
v  0.2859 10.0362 0.0000
v  0.2859 10.0362 0.3859
v  2.9865 10.0362 0.3859
v  -0.0011 9.7492 0.0000
v  -0.0011 3.1459 0.0000
v  -0.0011 3.1459 0.3859
v  -0.0011 9.7492 0.3859
# 20 vertices

vn 0.0000 0.0000 1.0000
vn 0.0000 -1.0000 0.0000
vn 1.0000 0.0000 0.0000
vn 0.0000 1.0000 0.0000
vn -1.0000 0.0000 0.0000
vn -0.5774 -0.5774 0.5774
vn 0.5774 -0.5774 0.5774
vn -0.5774 0.5774 0.5774
vn 0.5774 0.5774 0.5774
vn 0.0000 -0.7071 0.7071
vn 0.7071 0.0000 0.7071
vn 0.0000 0.7071 0.7071
vn -0.7071 0.0000 0.7071
vn 0.7071 -0.7071 0.0000
vn -0.7071 -0.7071 0.0000
vn 0.7071 0.7071 0.0000
vn -0.7071 0.7071 0.0000
# 17 vertex normals

g Brick004
usemtl 03___Default
f 85//70 86//70 87//70 
f 87//70 88//70 85//70 
f 89//71 90//71 91//71 
f 91//71 92//71 89//71 
f 93//72 94//72 95//72 
f 95//72 96//72 93//72 
f 97//73 98//73 99//73 
f 99//73 100//73 97//73 
f 101//74 102//74 103//74 
f 103//74 104//74 101//74 
f 92//75 85//75 103//75 
f 96//76 86//76 91//76 
f 104//77 88//77 99//77 
f 100//78 87//78 95//78 
f 85//79 92//79 91//79 
f 91//79 86//79 85//79 
f 86//80 96//80 95//80 
f 95//80 87//80 86//80 
f 87//81 100//81 99//81 
f 99//81 88//81 87//81 
f 88//82 104//82 103//82 
f 103//82 85//82 88//82 
f 90//83 93//83 96//83 
f 96//83 91//83 90//83 
f 92//84 103//84 102//84 
f 102//84 89//84 92//84 
f 94//85 97//85 100//85 
f 100//85 95//85 94//85 
f 98//86 101//86 104//86 
f 104//86 99//86 98//86 
# 30 faces

#
# object Brick005
#

v  -11.3436 6.1399 0.6729
v  -8.6430 6.1399 0.6729
v  -8.6430 12.7432 0.6729
v  -11.3436 12.7432 0.6729
v  -11.3436 5.8529 0.0000
v  -8.6430 5.8529 0.0000
v  -8.6430 5.8529 0.3859
v  -11.3436 5.8529 0.3859
v  -8.3560 6.1399 0.0000
v  -8.3560 12.7432 0.0000
v  -8.3560 12.7432 0.3859
v  -8.3560 6.1399 0.3859
v  -8.6430 13.0302 0.0000
v  -11.3436 13.0302 0.0000
v  -11.3436 13.0302 0.3859
v  -8.6430 13.0302 0.3859
v  -11.6306 12.7432 0.0000
v  -11.6306 6.1399 0.0000
v  -11.6306 6.1399 0.3859
v  -11.6306 12.7432 0.3859
# 20 vertices

vn 0.0000 0.0000 1.0000
vn 0.0000 -1.0000 0.0000
vn 1.0000 0.0000 0.0000
vn 0.0000 1.0000 0.0000
vn -1.0000 0.0000 0.0000
vn -0.5774 -0.5774 0.5774
vn 0.5774 -0.5774 0.5774
vn -0.5774 0.5774 0.5774
vn 0.5774 0.5774 0.5774
vn 0.0000 -0.7071 0.7071
vn 0.7071 0.0000 0.7071
vn 0.0000 0.7071 0.7071
vn -0.7071 0.0000 0.7071
vn 0.7071 -0.7071 0.0000
vn -0.7071 -0.7071 0.0000
vn 0.7071 0.7071 0.0000
vn -0.7071 0.7071 0.0000
# 17 vertex normals

g Brick005
usemtl 03___Default
f 105//87 106//87 107//87 
f 107//87 108//87 105//87 
f 109//88 110//88 111//88 
f 111//88 112//88 109//88 
f 113//89 114//89 115//89 
f 115//89 116//89 113//89 
f 117//90 118//90 119//90 
f 119//90 120//90 117//90 
f 121//91 122//91 123//91 
f 123//91 124//91 121//91 
f 112//92 105//92 123//92 
f 116//93 106//93 111//93 
f 124//94 108//94 119//94 
f 120//95 107//95 115//95 
f 105//96 112//96 111//96 
f 111//96 106//96 105//96 
f 106//97 116//97 115//97 
f 115//97 107//97 106//97 
f 107//98 120//98 119//98 
f 119//98 108//98 107//98 
f 108//99 124//99 123//99 
f 123//99 105//99 108//99 
f 110//100 113//100 116//100 
f 116//100 111//100 110//100 
f 112//101 123//101 122//101 
f 122//101 109//101 112//101 
f 114//102 117//102 120//102 
f 120//102 115//102 114//102 
f 118//103 121//103 124//103 
f 124//103 119//103 118//103 
# 30 faces

#
# object Brick006
#

v  -7.9653 2.9705 0.6729
v  -5.2647 2.9705 0.6729
v  -5.2647 9.5738 0.6729
v  -7.9653 9.5738 0.6729
v  -7.9653 2.6835 0.0000
v  -5.2647 2.6835 0.0000
v  -5.2647 2.6835 0.3859
v  -7.9653 2.6835 0.3859
v  -4.9777 2.9705 0.0000
v  -4.9777 9.5738 0.0000
v  -4.9777 9.5738 0.3859
v  -4.9777 2.9705 0.3859
v  -5.2647 9.8608 0.0000
v  -7.9653 9.8608 0.0000
v  -7.9653 9.8608 0.3859
v  -5.2647 9.8608 0.3859
v  -8.2523 9.5738 0.0000
v  -8.2523 2.9705 0.0000
v  -8.2523 2.9705 0.3859
v  -8.2523 9.5738 0.3859
# 20 vertices

vn 0.0000 0.0000 1.0000
vn 0.0000 -1.0000 0.0000
vn 1.0000 0.0000 0.0000
vn 0.0000 1.0000 0.0000
vn -1.0000 0.0000 0.0000
vn -0.5774 -0.5774 0.5774
vn 0.5774 -0.5774 0.5774
vn -0.5774 0.5774 0.5774
vn 0.5774 0.5774 0.5774
vn 0.0000 -0.7071 0.7071
vn 0.7071 0.0000 0.7071
vn 0.0000 0.7071 0.7071
vn -0.7071 0.0000 0.7071
vn 0.7071 -0.7071 0.0000
vn -0.7071 -0.7071 0.0000
vn 0.7071 0.7071 0.0000
vn -0.7071 0.7071 0.0000
# 17 vertex normals

g Brick006
usemtl 03___Default
f 125//104 126//104 127//104 
f 127//104 128//104 125//104 
f 129//105 130//105 131//105 
f 131//105 132//105 129//105 
f 133//106 134//106 135//106 
f 135//106 136//106 133//106 
f 137//107 138//107 139//107 
f 139//107 140//107 137//107 
f 141//108 142//108 143//108 
f 143//108 144//108 141//108 
f 132//109 125//109 143//109 
f 136//110 126//110 131//110 
f 144//111 128//111 139//111 
f 140//112 127//112 135//112 
f 125//113 132//113 131//113 
f 131//113 126//113 125//113 
f 126//114 136//114 135//114 
f 135//114 127//114 126//114 
f 127//115 140//115 139//115 
f 139//115 128//115 127//115 
f 128//116 144//116 143//116 
f 143//116 125//116 128//116 
f 130//117 133//117 136//117 
f 136//117 131//117 130//117 
f 132//118 143//118 142//118 
f 142//118 129//118 132//118 
f 134//119 137//119 140//119 
f 140//119 135//119 134//119 
f 138//120 141//120 144//120 
f 144//120 139//120 138//120 
# 30 faces

#
# object Brick007
#

v  -1.6007 -3.5421 0.6729
v  -4.3013 -3.5421 0.6729
v  -4.3013 -10.1454 0.6729
v  -1.6007 -10.1454 0.6729
v  -1.6007 -3.2551 0.0000
v  -4.3013 -3.2551 0.0000
v  -4.3013 -3.2551 0.3859
v  -1.6007 -3.2551 0.3859
v  -4.5883 -3.5421 0.0000
v  -4.5883 -10.1454 0.0000
v  -4.5883 -10.1454 0.3859
v  -4.5883 -3.5421 0.3859
v  -4.3013 -10.4324 0.0000
v  -1.6007 -10.4324 0.0000
v  -1.6007 -10.4324 0.3859
v  -4.3013 -10.4324 0.3859
v  -1.3137 -10.1454 0.0000
v  -1.3137 -3.5421 0.0000
v  -1.3137 -3.5421 0.3859
v  -1.3137 -10.1454 0.3859
# 20 vertices

vn 0.0000 0.0000 1.0000
vn -0.0000 1.0000 0.0000
vn -1.0000 -0.0000 0.0000
vn 0.0000 -1.0000 0.0000
vn 1.0000 0.0000 0.0000
vn 0.5774 0.5774 0.5774
vn -0.5774 0.5774 0.5774
vn 0.5774 -0.5774 0.5774
vn -0.5774 -0.5774 0.5774
vn -0.0000 0.7071 0.7071
vn -0.7071 -0.0000 0.7071
vn 0.0000 -0.7071 0.7071
vn 0.7071 0.0000 0.7071
vn -0.7071 0.7071 0.0000
vn 0.7071 0.7071 0.0000
vn -0.7071 -0.7071 0.0000
vn 0.7071 -0.7071 0.0000
# 17 vertex normals

g Brick007
usemtl 03___Default
f 145//121 146//121 147//121 
f 147//121 148//121 145//121 
f 149//122 150//122 151//122 
f 151//122 152//122 149//122 
f 153//123 154//123 155//123 
f 155//123 156//123 153//123 
f 157//124 158//124 159//124 
f 159//124 160//124 157//124 
f 161//125 162//125 163//125 
f 163//125 164//125 161//125 
f 152//126 145//126 163//126 
f 156//127 146//127 151//127 
f 164//128 148//128 159//128 
f 160//129 147//129 155//129 
f 145//130 152//130 151//130 
f 151//130 146//130 145//130 
f 146//131 156//131 155//131 
f 155//131 147//131 146//131 
f 147//132 160//132 159//132 
f 159//132 148//132 147//132 
f 148//133 164//133 163//133 
f 163//133 145//133 148//133 
f 150//134 153//134 156//134 
f 156//134 151//134 150//134 
f 152//135 163//135 162//135 
f 162//135 149//135 152//135 
f 154//136 157//136 160//136 
f 160//136 155//136 154//136 
f 158//137 161//137 164//137 
f 164//137 159//137 158//137 
# 30 faces

#
# object Brick008
#

v  1.7532 -7.3649 0.6729
v  -0.9474 -7.3649 0.6729
v  -0.9474 -13.9681 0.6729
v  1.7532 -13.9681 0.6729
v  1.7532 -7.0779 0.0000
v  -0.9474 -7.0779 0.0000
v  -0.9474 -7.0779 0.3859
v  1.7532 -7.0779 0.3859
v  -1.2344 -7.3649 0.0000
v  -1.2344 -13.9681 0.0000
v  -1.2344 -13.9681 0.3859
v  -1.2344 -7.3649 0.3859
v  -0.9474 -14.2551 0.0000
v  1.7532 -14.2551 0.0000
v  1.7532 -14.2551 0.3859
v  -0.9474 -14.2551 0.3859
v  2.0402 -13.9681 0.0000
v  2.0402 -7.3649 0.0000
v  2.0402 -7.3649 0.3859
v  2.0402 -13.9681 0.3859
# 20 vertices

vn 0.0000 0.0000 1.0000
vn -0.0000 1.0000 0.0000
vn -1.0000 -0.0000 0.0000
vn 0.0000 -1.0000 0.0000
vn 1.0000 0.0000 0.0000
vn 0.5774 0.5774 0.5774
vn -0.5774 0.5774 0.5774
vn 0.5774 -0.5774 0.5774
vn -0.5774 -0.5774 0.5774
vn -0.0000 0.7071 0.7071
vn -0.7071 -0.0000 0.7071
vn 0.0000 -0.7071 0.7071
vn 0.7071 0.0000 0.7071
vn -0.7071 0.7071 0.0000
vn 0.7071 0.7071 0.0000
vn -0.7071 -0.7071 0.0000
vn 0.7071 -0.7071 0.0000
# 17 vertex normals

g Brick008
usemtl 03___Default
f 165//138 166//138 167//138 
f 167//138 168//138 165//138 
f 169//139 170//139 171//139 
f 171//139 172//139 169//139 
f 173//140 174//140 175//140 
f 175//140 176//140 173//140 
f 177//141 178//141 179//141 
f 179//141 180//141 177//141 
f 181//142 182//142 183//142 
f 183//142 184//142 181//142 
f 172//143 165//143 183//143 
f 176//144 166//144 171//144 
f 184//145 168//145 179//145 
f 180//146 167//146 175//146 
f 165//147 172//147 171//147 
f 171//147 166//147 165//147 
f 166//148 176//148 175//148 
f 175//148 167//148 166//148 
f 167//149 180//149 179//149 
f 179//149 168//149 167//149 
f 168//150 184//150 183//150 
f 183//150 165//150 168//150 
f 170//151 173//151 176//151 
f 176//151 171//151 170//151 
f 172//152 183//152 182//152 
f 182//152 169//152 172//152 
f 174//153 177//153 180//153 
f 180//153 175//153 174//153 
f 178//154 181//154 184//154 
f 184//154 179//154 178//154 
# 30 faces

