# Blender v2.69 (sub 0) OBJ File: ''
# www.blender.org
mtllib RoadTile003.mtl
o Brick006.002
v -5.689700 -4.503800 0.672899
v -2.989000 -4.503800 0.672899
v -2.989000 2.099500 0.672900
v -5.689700 2.099500 0.672900
v -5.689700 -4.790800 -0.000001
v -2.989000 -4.790800 -0.000001
v -2.989000 -4.790800 0.385899
v -5.689700 -4.790800 0.385899
v -2.702100 -4.503800 -0.000001
v -2.702100 2.099500 0.000000
v -2.702100 2.099500 0.385900
v -2.702100 -4.503800 0.385899
v -2.989000 2.386400 0.000000
v -5.689700 2.386400 0.000000
v -5.689700 2.386400 0.385900
v -2.989000 2.386400 0.385900
v -5.976700 2.099500 0.000000
v -5.976700 -4.503800 -0.000001
v -5.976700 -4.503800 0.385899
v -5.976700 2.099500 0.385900
vn 0.000000 -0.000000 1.000000
vn 0.000000 -1.000000 0.000000
vn 1.000000 -0.000000 0.000000
vn 0.000000 1.000000 0.000000
vn -1.000000 0.000000 0.000000
vn -0.577351 -0.577350 0.577350
vn 0.577485 -0.577283 0.577283
vn -0.577284 0.577484 0.577283
vn 0.577417 0.577418 0.577216
vn 0.000000 -0.707106 0.707107
vn 0.000000 -0.707108 0.707106
vn 0.707230 -0.000000 0.706984
vn 0.000000 0.707230 0.706984
vn -0.707107 -0.000000 0.707106
vn 0.707230 -0.706983 0.000000
vn 0.707230 -0.706984 0.000000
vn -0.707108 -0.707106 0.000000
vn -0.707106 -0.707107 0.000000
vn 0.707107 0.707107 0.000000
vn 0.707106 0.707107 0.000000
vn -0.706983 0.707231 0.000000
vn -0.706984 0.707229 0.000000
usemtl 03___Default.002
s off
f 1//1 2//1 3//1
f 4//1 1//1 3//1
f 5//2 6//2 7//2
f 7//2 8//2 5//2
f 9//3 10//3 11//3
f 11//3 12//3 9//3
f 13//4 14//4 15//4
f 15//4 16//4 13//4
f 17//5 18//5 19//5
f 19//5 20//5 17//5
f 8//6 1//6 19//6
f 12//7 2//7 7//7
f 20//8 4//8 15//8
f 16//9 3//9 11//9
f 1//10 8//10 7//10
f 2//11 1//11 7//11
f 2//12 12//12 11//12
f 11//12 3//12 2//12
f 3//13 16//13 15//13
f 15//13 4//13 3//13
f 4//14 20//14 19//14
f 19//14 1//14 4//14
f 6//15 9//15 12//15
f 12//16 7//16 6//16
f 8//17 19//17 18//17
f 18//18 5//18 8//18
f 10//19 13//19 16//19
f 16//20 11//20 10//20
f 14//21 17//21 20//21
f 20//22 15//22 14//22
o Brick007.002
v 13.913800 15.102800 0.672902
v 11.213200 15.102800 0.672902
v 11.213200 8.499500 0.672901
v 13.913800 8.499500 0.672901
v 13.913800 15.389800 0.000003
v 11.213200 15.389800 0.000003
v 11.213200 15.389800 0.385902
v 13.913800 15.389800 0.385902
v 10.926200 15.102800 0.000002
v 10.926200 8.499500 0.000001
v 10.926200 8.499500 0.385901
v 10.926200 15.102800 0.385902
v 11.213200 8.212500 0.000001
v 13.913800 8.212500 0.000001
v 13.913800 8.212500 0.385901
v 11.213200 8.212500 0.385901
v 14.200800 8.499500 0.000001
v 14.200800 15.102800 0.000002
v 14.200800 15.102800 0.385902
v 14.200800 8.499500 0.385901
vn 0.000000 -0.000000 1.000000
vn 0.000000 1.000000 0.000000
vn -1.000000 -0.000000 0.000000
vn 0.000000 -1.000000 0.000000
vn 1.000000 0.000000 0.000000
vn 0.577352 0.577355 0.577345
vn -0.577353 0.577352 0.577346
vn 0.577351 -0.577352 0.577348
vn -0.577352 -0.577349 0.577349
vn 0.000000 0.707108 0.707106
vn 0.000000 0.707107 0.707106
vn -0.707107 -0.000000 0.707107
vn -0.707107 -0.000000 0.707106
vn 0.000000 -0.707106 0.707108
vn 0.000000 -0.707106 0.707107
vn 0.707107 0.000000 0.707107
vn 0.707107 -0.000000 0.707106
vn -0.707107 0.707106 0.000000
vn 0.707107 0.707106 0.000000
vn 0.707104 0.707109 0.000000
vn -0.707108 -0.707105 0.000000
vn 0.707108 -0.707105 0.000000
vn 0.707105 -0.707108 0.000000
usemtl 03___Default.002
s off
f 21//23 22//23 23//23
f 24//23 21//23 23//23
f 25//24 26//24 27//24
f 27//24 28//24 25//24
f 29//25 30//25 31//25
f 31//25 32//25 29//25
f 33//26 34//26 35//26
f 35//26 36//26 33//26
f 37//27 38//27 39//27
f 39//27 40//27 37//27
f 28//28 21//28 39//28
f 32//29 22//29 27//29
f 40//30 24//30 35//30
f 36//31 23//31 31//31
f 21//32 28//32 27//32
f 22//33 21//33 27//33
f 22//34 32//34 31//34
f 31//35 23//35 22//35
f 23//36 36//36 35//36
f 35//37 24//37 23//37
f 24//38 40//38 39//38
f 39//39 21//39 24//39
f 26//40 29//40 32//40
f 32//40 27//40 26//40
f 28//41 39//41 38//41
f 38//42 25//42 28//42
f 30//43 33//43 36//43
f 36//43 31//43 30//43
f 34//44 37//44 40//44
f 40//45 35//45 34//45
o Brick003.002
v -9.235700 -8.653600 0.672899
v -6.535100 -8.653600 0.672899
v -6.535100 -2.050300 0.672900
v -9.235700 -2.050300 0.672900
v -9.235700 -8.940600 -0.000001
v -6.535100 -8.940600 -0.000001
v -6.535100 -8.940600 0.385899
v -9.235700 -8.940600 0.385899
v -6.248100 -8.653600 -0.000001
v -6.248100 -2.050300 -0.000000
v -6.248100 -2.050300 0.385900
v -6.248100 -8.653600 0.385899
v -6.535100 -1.763300 -0.000000
v -9.235700 -1.763300 -0.000000
v -9.235700 -1.763300 0.385900
v -6.535100 -1.763300 0.385900
v -9.522700 -2.050300 -0.000000
v -9.522700 -8.653600 -0.000001
v -9.522700 -8.653600 0.385899
v -9.522700 -2.050300 0.385900
vn 0.000000 -0.000000 1.000000
vn 0.000000 -1.000000 0.000000
vn 1.000000 0.000000 0.000000
vn 0.000000 1.000000 0.000000
vn 0.000000 1.000000 0.000001
vn -1.000000 0.000000 0.000000
vn -0.577350 -0.577347 0.577354
vn 0.577350 -0.577351 0.577351
vn -0.577349 0.577351 0.577350
vn 0.577349 0.577352 0.577349
vn 0.000000 -0.707106 0.707107
vn 0.000000 -0.707106 0.707108
vn 0.707107 -0.000000 0.707107
vn 0.000000 0.707107 0.707107
vn 0.000000 0.707107 0.707106
vn -0.707106 -0.000000 0.707108
vn 0.707107 -0.707107 0.000000
vn -0.707107 -0.707107 0.000000
vn 0.707106 0.707108 0.000000
vn 0.707107 0.707106 0.000000
vn -0.707107 0.707106 0.000000
vn -0.707106 0.707108 0.000000
usemtl 03___Default.002
s off
f 41//46 42//46 43//46
f 44//46 41//46 43//46
f 45//47 46//47 47//47
f 47//47 48//47 45//47
f 49//48 50//48 51//48
f 51//48 52//48 49//48
f 53//49 54//49 55//49
f 55//50 56//50 53//50
f 57//51 58//51 59//51
f 59//51 60//51 57//51
f 48//52 41//52 59//52
f 52//53 42//53 47//53
f 60//54 44//54 55//54
f 56//55 43//55 51//55
f 41//56 48//56 47//56
f 42//57 41//57 47//57
f 42//58 52//58 51//58
f 51//58 43//58 42//58
f 43//59 56//59 55//59
f 55//60 44//60 43//60
f 44//61 60//61 59//61
f 59//61 41//61 44//61
f 46//62 49//62 52//62
f 52//62 47//62 46//62
f 48//63 59//63 58//63
f 58//63 45//63 48//63
f 50//64 53//64 56//64
f 56//65 51//65 50//65
f 54//66 57//66 60//66
f 60//67 55//67 54//67
o Brick001.002
v 10.685900 -12.046400 0.672898
v 13.386500 -12.046400 0.672898
v 13.386500 -5.443100 0.672899
v 10.685900 -5.443100 0.672899
v 10.685900 -12.333400 -0.000002
v 13.386500 -12.333400 -0.000002
v 13.386500 -12.333400 0.385898
v 10.685900 -12.333400 0.385898
v 13.673500 -12.046400 -0.000002
v 13.673500 -5.443100 -0.000001
v 13.673500 -5.443100 0.385899
v 13.673500 -12.046400 0.385898
v 13.386500 -5.156100 -0.000001
v 10.685900 -5.156100 -0.000001
v 10.685900 -5.156100 0.385899
v 13.386500 -5.156100 0.385899
v 10.398900 -5.443100 -0.000001
v 10.398900 -12.046400 -0.000002
v 10.398900 -12.046400 0.385898
v 10.398900 -5.443100 0.385899
vn 0.000000 -0.000000 1.000000
vn 0.000000 -1.000000 0.000000
vn 1.000000 -0.000000 0.000000
vn 0.000000 1.000000 0.000000
vn -1.000000 -0.000000 0.000000
vn -0.577353 -0.577349 0.577349
vn 0.577351 -0.577353 0.577347
vn -0.577352 0.577347 0.577352
vn 0.577350 0.577351 0.577350
vn 0.000000 -0.707108 0.707106
vn 0.707107 -0.000000 0.707106
vn 0.000000 0.707107 0.707107
vn 0.000000 0.707106 0.707108
vn -0.707107 -0.000000 0.707106
vn 0.707107 -0.707106 0.000000
vn 0.707104 -0.707109 0.000000
vn -0.707107 -0.707106 0.000000
vn 0.707102 0.707112 0.000000
vn 0.707108 0.707106 0.000000
vn -0.707108 0.707106 0.000000
usemtl 03___Default.002
s off
f 61//68 62//68 63//68
f 64//68 61//68 63//68
f 65//69 66//69 67//69
f 67//69 68//69 65//69
f 69//70 70//70 71//70
f 71//70 72//70 69//70
f 73//71 74//71 75//71
f 75//71 76//71 73//71
f 77//72 78//72 79//72
f 79//72 80//72 77//72
f 68//73 61//73 79//73
f 72//74 62//74 67//74
f 80//75 64//75 75//75
f 76//76 63//76 71//76
f 61//77 68//77 67//77
f 62//77 61//77 67//77
f 62//78 72//78 71//78
f 71//78 63//78 62//78
f 63//79 76//79 75//79
f 75//80 64//80 63//80
f 64//81 80//81 79//81
f 79//81 61//81 64//81
f 66//82 69//82 72//82
f 72//83 67//83 66//83
f 68//84 79//84 78//84
f 78//84 65//84 68//84
f 70//85 73//85 76//85
f 76//86 71//86 70//86
f 74//87 77//87 80//87
f 80//87 75//87 74//87
o Brick005.002
v -9.068000 -1.334400 0.672900
v -6.367300 -1.334400 0.672900
v -6.367300 5.268900 0.672901
v -9.068000 5.268900 0.672901
v -9.068000 -1.621400 -0.000000
v -6.367300 -1.621400 -0.000000
v -6.367300 -1.621400 0.385900
v -9.068000 -1.621400 0.385900
v -6.080300 -1.334400 -0.000000
v -6.080300 5.268900 0.000001
v -6.080300 5.268900 0.385901
v -6.080300 -1.334400 0.385900
v -6.367300 5.555800 0.000001
v -9.068000 5.555800 0.000001
v -9.068000 5.555800 0.385901
v -6.367300 5.555800 0.385901
v -9.355000 5.268900 0.000001
v -9.355000 -1.334400 -0.000000
v -9.355000 -1.334400 0.385900
v -9.355000 5.268900 0.385901
vn 0.000000 -0.000000 1.000000
vn 0.000000 -1.000000 0.000000
vn 1.000000 -0.000000 0.000000
vn 0.000000 1.000000 0.000000
vn -1.000000 0.000000 0.000000
vn -0.577350 -0.577352 0.577349
vn 0.577350 -0.577351 0.577350
vn -0.577283 0.577487 0.577281
vn 0.577283 0.577485 0.577283
vn 0.000000 -0.707107 0.707107
vn 0.707107 -0.000000 0.707107
vn 0.000000 0.707230 0.706984
vn 0.000000 0.707230 0.706983
vn -0.707107 -0.000000 0.707106
vn 0.707106 -0.707108 0.000000
vn 0.707106 -0.707108 -0.000001
vn -0.707107 -0.707106 -0.000000
vn -0.707106 -0.707108 0.000000
vn 0.706983 0.707231 0.000000
vn 0.706984 0.707229 0.000000
vn -0.706986 0.707228 0.000000
vn -0.706983 0.707231 0.000000
usemtl 03___Default.002
s off
f 81//88 82//88 83//88
f 84//88 81//88 83//88
f 85//89 86//89 87//89
f 87//89 88//89 85//89
f 89//90 90//90 91//90
f 91//90 92//90 89//90
f 93//91 94//91 95//91
f 95//91 96//91 93//91
f 97//92 98//92 99//92
f 99//92 100//92 97//92
f 88//93 81//93 99//93
f 92//94 82//94 87//94
f 100//95 84//95 95//95
f 96//96 83//96 91//96
f 81//97 88//97 87//97
f 82//97 81//97 87//97
f 82//98 92//98 91//98
f 91//98 83//98 82//98
f 83//99 96//99 95//99
f 95//100 84//100 83//100
f 84//101 100//101 99//101
f 99//101 81//101 84//101
f 86//102 89//102 92//102
f 92//103 87//103 86//103
f 88//104 99//104 98//104
f 98//105 85//105 88//105
f 90//106 93//106 96//106
f 96//107 91//107 90//107
f 94//108 97//108 100//108
f 100//109 95//109 94//109
o Brick004.002
v 11.069500 -4.987200 0.672899
v 13.770200 -4.987200 0.672899
v 13.770200 1.616100 0.672900
v 11.069500 1.616100 0.672900
v 11.069500 -5.274200 -0.000001
v 13.770200 -5.274200 -0.000001
v 13.770200 -5.274200 0.385899
v 11.069500 -5.274200 0.385899
v 14.057200 -4.987200 -0.000001
v 14.057200 1.616100 0.000000
v 14.057200 1.616100 0.385900
v 14.057200 -4.987200 0.385899
v 13.770200 1.903100 0.000000
v 11.069500 1.903100 0.000000
v 11.069500 1.903100 0.385900
v 13.770200 1.903100 0.385900
v 10.782600 1.616100 0.000000
v 10.782600 -4.987200 -0.000001
v 10.782600 -4.987200 0.385899
v 10.782600 1.616100 0.385900
vn 0.000000 -0.000000 1.000000
vn 0.000000 -1.000000 0.000000
vn 1.000000 0.000000 0.000000
vn 0.000000 1.000000 0.000000
vn 0.000000 1.000000 0.000001
vn -1.000000 0.000000 0.000000
vn -0.577486 -0.577281 0.577284
vn 0.577349 -0.577351 0.577351
vn -0.577486 0.577281 0.577284
vn 0.577349 0.577351 0.577350
vn 0.000000 -0.707107 0.707107
vn 0.000000 -0.707106 0.707107
vn 0.707106 -0.000000 0.707108
vn 0.000000 0.707107 0.707107
vn -0.707231 -0.000000 0.706983
vn -0.707230 -0.000000 0.706983
vn 0.707108 -0.707106 0.000000
vn -0.707233 -0.706981 0.000000
vn -0.707230 -0.706984 0.000000
vn 0.707108 0.707106 0.000000
vn 0.707105 0.707109 0.000000
vn -0.707229 0.706984 0.000000
vn -0.707232 0.706981 0.000000
usemtl 03___Default.002
s off
f 101//110 102//110 103//110
f 104//110 101//110 103//110
f 105//111 106//111 107//111
f 107//111 108//111 105//111
f 109//112 110//112 111//112
f 111//112 112//112 109//112
f 113//113 114//113 115//113
f 115//114 116//114 113//114
f 117//115 118//115 119//115
f 119//115 120//115 117//115
f 108//116 101//116 119//116
f 112//117 102//117 107//117
f 120//118 104//118 115//118
f 116//119 103//119 111//119
f 101//120 108//120 107//120
f 102//121 101//121 107//121
f 102//122 112//122 111//122
f 111//122 103//122 102//122
f 103//123 116//123 115//123
f 115//123 104//123 103//123
f 104//124 120//124 119//124
f 119//125 101//125 104//125
f 106//126 109//126 112//126
f 112//126 107//126 106//126
f 108//127 119//127 118//127
f 118//128 105//128 108//128
f 110//129 113//129 116//129
f 116//130 111//130 110//130
f 114//131 117//131 120//131
f 120//132 115//132 114//132
o Brick002.002
v 7.733200 4.903600 0.672901
v 10.433800 4.903600 0.672901
v 10.433800 11.506900 0.672902
v 7.733200 11.506900 0.672902
v 7.733200 4.616600 0.000001
v 10.433800 4.616600 0.000001
v 10.433800 4.616600 0.385901
v 7.733200 4.616600 0.385901
v 10.720800 4.903600 0.000001
v 10.720800 11.506900 0.000002
v 10.720800 11.506900 0.385902
v 10.720800 4.903600 0.385901
v 10.433800 11.793800 0.000002
v 7.733200 11.793800 0.000002
v 7.733200 11.793800 0.385902
v 10.433800 11.793800 0.385902
v 7.446200 11.506900 0.000002
v 7.446200 4.903600 0.000001
v 7.446200 4.903600 0.385901
v 7.446200 11.506900 0.385902
vn 0.000000 -0.000000 1.000000
vn 0.000000 -1.000000 0.000000
vn 1.000000 0.000000 0.000000
vn 0.000000 1.000000 0.000000
vn -1.000000 0.000000 0.000000
vn -0.577351 -0.577350 0.577350
vn 0.577349 -0.577351 0.577350
vn -0.577282 0.577485 0.577284
vn 0.577282 0.577485 0.577284
vn 0.000000 -0.707106 0.707107
vn 0.000000 -0.707107 0.707107
vn 0.707106 -0.000000 0.707108
vn 0.000000 0.707229 0.706984
vn 0.000000 0.707228 0.706986
vn -0.707107 -0.000000 0.707107
vn 0.707105 -0.707109 0.000000
vn 0.707108 -0.707106 0.000000
vn -0.707106 -0.707107 0.000000
vn 0.706985 0.707229 0.000000
vn 0.706982 0.707232 0.000000
vn -0.706985 0.707229 0.000000
vn -0.706984 0.707230 0.000000
usemtl 03___Default.002
s off
f 121//133 122//133 123//133
f 124//133 121//133 123//133
f 125//134 126//134 127//134
f 127//134 128//134 125//134
f 129//135 130//135 131//135
f 131//135 132//135 129//135
f 133//136 134//136 135//136
f 135//136 136//136 133//136
f 137//137 138//137 139//137
f 139//137 140//137 137//137
f 128//138 121//138 139//138
f 132//139 122//139 127//139
f 140//140 124//140 135//140
f 136//141 123//141 131//141
f 121//142 128//142 127//142
f 122//143 121//143 127//143
f 122//144 132//144 131//144
f 131//144 123//144 122//144
f 123//145 136//145 135//145
f 135//146 124//146 123//146
f 124//147 140//147 139//147
f 139//147 121//147 124//147
f 126//148 129//148 132//148
f 132//149 127//149 126//149
f 128//150 139//150 138//150
f 138//150 125//150 128//150
f 130//151 133//151 136//151
f 136//152 131//152 130//152
f 134//153 137//153 140//153
f 140//154 135//154 134//154
o Brick.002
v -2.204600 -1.716100 0.672900
v 0.496100 -1.716100 0.672900
v 0.496100 4.887200 0.672901
v -2.204600 4.887200 0.672901
v -2.204600 -2.003100 -0.000000
v 0.496100 -2.003100 -0.000000
v 0.496100 -2.003100 0.385900
v -2.204600 -2.003100 0.385900
v 0.783100 -1.716100 -0.000000
v 0.783100 4.887200 0.000001
v 0.783100 4.887200 0.385901
v 0.783100 -1.716100 0.385900
v 0.496100 5.174200 0.000001
v -2.204600 5.174200 0.000001
v -2.204600 5.174200 0.385901
v 0.496100 5.174200 0.385901
v -2.491500 4.887200 0.000001
v -2.491500 -1.716100 -0.000000
v -2.491500 -1.716100 0.385900
v -2.491500 4.887200 0.385901
vn 0.000000 -0.000000 1.000000
vn 0.000000 -1.000000 0.000000
vn 1.000000 0.000000 0.000000
vn 0.000000 1.000000 0.000000
vn -1.000000 0.000000 0.000000
vn -0.577484 -0.577284 0.577283
vn 0.577350 -0.577351 0.577350
vn -0.577485 0.577283 0.577283
vn 0.577351 0.577351 0.577349
vn 0.000000 -0.707107 0.707106
vn 0.000000 -0.707107 0.707107
vn 0.707107 -0.000000 0.707107
vn 0.000000 0.707105 0.707108
vn 0.000000 0.707108 0.707106
vn -0.707230 -0.000000 0.706983
vn 0.707107 -0.707107 -0.000001
vn 0.707107 -0.707107 0.000000
vn -0.707230 -0.706983 -0.000001
vn -0.707230 -0.706984 0.000000
vn 0.707107 0.707107 0.000000
vn 0.707107 0.707106 0.000000
vn -0.707231 0.706982 0.000000
vn -0.707230 0.706983 0.000000
usemtl 03___Default.002
s off
f 141//155 142//155 143//155
f 144//155 141//155 143//155
f 145//156 146//156 147//156
f 147//156 148//156 145//156
f 149//157 150//157 151//157
f 151//157 152//157 149//157
f 153//158 154//158 155//158
f 155//158 156//158 153//158
f 157//159 158//159 159//159
f 159//159 160//159 157//159
f 148//160 141//160 159//160
f 152//161 142//161 147//161
f 160//162 144//162 155//162
f 156//163 143//163 151//163
f 141//164 148//164 147//164
f 142//165 141//165 147//165
f 142//166 152//166 151//166
f 151//166 143//166 142//166
f 143//167 156//167 155//167
f 155//168 144//168 143//168
f 144//169 160//169 159//169
f 159//169 141//169 144//169
f 146//170 149//170 152//170
f 152//171 147//171 146//171
f 148//172 159//172 158//172
f 158//173 145//173 148//173
f 150//174 153//174 156//174
f 156//175 151//175 150//175
f 154//176 157//176 160//176
f 160//177 155//177 154//177
o Plane001.007
v -16.000000 16.000000 0.000003
v -16.000000 -16.000000 -0.000003
v 16.000000 16.000000 0.000003
v 16.000000 -16.000000 -0.000003
vn 0.000000 -0.000000 1.000000
usemtl 02___Default.002
s off
f 161//178 162//178 163//178
f 164//178 163//178 162//178
o Brick008.002
v 10.078900 -1.386900 0.672900
v 7.378300 -1.386900 0.672900
v 7.378300 -7.990200 0.672899
v 10.078900 -7.990200 0.672899
v 10.078900 -1.099900 -0.000000
v 7.378300 -1.099900 -0.000000
v 7.378300 -1.099900 0.385900
v 10.078900 -1.099900 0.385900
v 7.091300 -1.386900 -0.000000
v 7.091300 -7.990200 -0.000001
v 7.091300 -7.990200 0.385899
v 7.091300 -1.386900 0.385900
v 7.378300 -8.277200 -0.000001
v 10.078900 -8.277200 -0.000001
v 10.078900 -8.277200 0.385899
v 7.378300 -8.277200 0.385899
v 10.365900 -7.990200 -0.000001
v 10.365900 -1.386900 -0.000000
v 10.365900 -1.386900 0.385900
v 10.365900 -7.990200 0.385899
vn 0.000000 -0.000000 1.000000
vn 0.000000 1.000000 0.000000
vn 0.000000 1.000000 0.000001
vn -1.000000 0.000000 0.000000
vn 0.000000 -1.000000 0.000000
vn 1.000000 0.000000 0.000000
vn 0.577351 0.577350 0.577350
vn -0.577350 0.577350 0.577351
vn 0.577351 -0.577350 0.577350
vn -0.577351 -0.577350 0.577350
vn 0.000000 0.707107 0.707107
vn -0.707107 -0.000000 0.707107
vn 0.000000 -0.707106 0.707107
vn 0.000000 -0.707108 0.707106
vn 0.707107 -0.000000 0.707106
vn -0.707107 0.707106 0.000000
vn 0.707107 0.707106 0.000000
vn 0.707104 0.707109 0.000000
vn -0.707107 -0.707106 0.000000
vn -0.707106 -0.707108 0.000000
vn 0.707107 -0.707106 0.000000
vn 0.707104 -0.707109 0.000000
usemtl 03___Default.002
s off
f 165//179 166//179 167//179
f 168//179 165//179 167//179
f 169//180 170//180 171//180
f 171//181 172//181 169//181
f 173//182 174//182 175//182
f 175//182 176//182 173//182
f 177//183 178//183 179//183
f 179//183 180//183 177//183
f 181//184 182//184 183//184
f 183//184 184//184 181//184
f 172//185 165//185 183//185
f 176//186 166//186 171//186
f 184//187 168//187 179//187
f 180//188 167//188 175//188
f 165//189 172//189 171//189
f 166//189 165//189 171//189
f 166//190 176//190 175//190
f 175//190 167//190 166//190
f 167//191 180//191 179//191
f 179//192 168//192 167//192
f 168//193 184//193 183//193
f 183//193 165//193 168//193
f 170//194 173//194 176//194
f 176//194 171//194 170//194
f 172//195 183//195 182//195
f 182//196 169//196 172//196
f 174//197 177//197 180//197
f 180//198 175//198 174//198
f 178//199 181//199 184//199
f 184//200 179//200 178//200
