# Blender v2.69 (sub 0) OBJ File: ''
# www.blender.org
mtllib ShrubberyExtra.mtl
o Mesher001
v -3.426800 16.893497 13.082003
v -5.744700 12.116697 17.110003
v -6.829400 8.038798 11.650001
v -4.511400 12.815699 7.621902
v -9.911700 -13.779902 12.565298
v -3.352500 -13.628402 11.394498
v -2.326800 -10.637003 17.527798
v -8.886000 -10.788603 18.698599
v -0.065800 10.025799 3.558702
v 6.007600 8.601499 5.904501
v 8.239800 14.814999 3.897802
v 2.166500 16.239300 1.552003
v 1.095500 -14.665601 6.251398
v -0.466500 -8.582501 4.021399
v -6.598600 -10.933600 1.903098
v -5.036600 -17.016701 4.133097
v -1.726900 15.546999 8.251903
v -3.977300 10.747098 12.291002
v -9.739100 10.277599 8.522902
v -7.488700 15.077399 4.483802
v -9.399400 -5.470301 4.792699
v -9.057600 -7.405402 11.160999
v -15.457300 -5.051802 12.219699
v -15.799200 -3.116701 5.851500
v -0.918300 11.140398 13.581802
v 4.354200 8.919497 17.000202
v 8.448600 13.210299 13.472902
v 3.176200 15.431198 10.054502
v -5.882200 -10.062302 9.407998
v -6.640100 -16.272102 7.110197
v -2.542100 -14.792300 1.759098
v -1.784200 -8.582401 4.056899
v -16.481001 -4.257501 6.463099
v -16.358601 -2.010402 12.736200
v -9.461800 -1.876302 12.553600
v -9.584200 -4.123301 6.280499
v 3.631800 -13.925401 4.957098
v -2.283100 -16.195700 2.889297
v -5.410300 -12.582801 7.867698
v 0.504600 -10.312502 9.935598
v 10.004200 2.380199 7.422101
v 8.348600 8.812099 7.974701
v 14.298100 10.601599 4.971602
v 15.953800 4.169599 4.419001
v 10.592700 -13.591303 16.832397
v 8.644600 -11.793102 10.717798
v 7.496600 -5.372802 12.971699
v 9.444700 -7.171003 19.086199
v -10.044800 -11.782803 18.163698
v -9.686000 -11.807102 11.508898
v -9.046400 -4.936302 11.518299
v -9.405200 -4.912003 18.173201
v 8.068300 0.113199 3.477400
v 13.647500 -3.524201 3.719700
v 16.866100 1.630299 6.989100
v 11.286900 5.267699 6.746901
v 7.148400 15.806299 7.402602
v 12.204900 12.968699 10.688402
v 8.109900 7.697198 12.437701
v 3.053400 10.534798 9.152002
v 12.406100 -0.618103 18.179800
v 8.807400 -4.163403 13.832899
v 3.710400 0.467098 14.276000
v 7.309100 4.012397 18.622999
v -17.635401 0.235399 7.748100
v -15.327500 1.332098 13.903400
v -9.213200 3.167698 11.283801
v -11.521100 2.071099 5.128500
v 6.318400 -8.446801 4.885599
v 0.976200 -11.973201 3.030098
v 3.717800 -17.627102 5.882197
v 9.060000 -14.100701 7.737597
v -7.258800 -0.121602 15.114400
v -9.848700 4.416698 10.977601
v -12.412600 7.871497 16.372803
v -9.822700 3.333197 20.509600
v -6.065900 9.383099 7.637102
v -12.006000 9.308498 10.658102
v -14.618700 13.230999 5.617702
v -8.678600 13.305500 2.596702
v -9.408100 -8.212500 -0.370101
v -7.532900 -11.515301 5.106398
v -14.016100 -13.699201 6.009198
v -15.891300 -10.396500 0.532698
v -5.051200 -0.438203 19.045401
v -1.742700 -3.528702 14.154699
v 3.952200 0.019897 15.764800
v 0.643700 3.110497 20.655500
v -8.515800 -6.317003 19.804598
v -11.778600 -3.323702 14.823599
v -6.753100 1.382298 14.359700
v -3.490400 -1.611003 19.340799
v 2.959000 16.202900 3.931403
v 2.956200 9.944999 6.223901
v 8.257700 8.423500 2.077201
v 8.260600 14.681400 -0.215298
v -0.708400 9.470498 10.912601
v 0.725200 14.603597 14.914102
v -5.904700 16.515697 14.836503
v -7.338300 11.382498 10.835002
v 9.166200 2.471599 4.589400
v 13.304400 -2.743501 4.898900
v 15.192300 -1.633700 -1.644900
v 11.054200 3.581300 -1.954399
v -4.635800 -12.079403 16.882498
v 1.792300 -13.573003 15.952598
v 1.025400 -12.643202 9.158098
v -5.402700 -11.149602 10.088099
v 9.433600 16.358297 9.381603
v 8.925400 10.588898 12.678902
v 10.899000 7.177699 7.014501
v 11.407200 12.947099 3.717102
v -15.253900 -6.267400 1.330399
v -11.451400 -5.033601 6.662899
v -8.087000 -10.970501 5.637498
v -11.889500 -12.204300 0.304998
v 11.331800 -10.904502 12.040198
v 16.893999 -7.440202 13.255599
v 13.644300 -1.609202 11.507500
v 8.082100 -5.073502 10.292099
v -5.711900 -14.649401 5.959298
v -8.710700 -9.316801 3.315999
v -13.243400 -9.286701 8.518998
v -10.244600 -14.619302 11.162298
v -8.052900 -4.490601 5.418699
v -12.289100 -3.707402 10.503699
v -17.408400 -2.462801 6.047100
v -13.172100 -3.246000 0.962199
v -0.779200 11.632696 20.490902
v 5.124700 10.826897 17.505802
v 2.121100 7.026498 12.591301
v -3.782800 7.832298 15.576401
v 11.480700 -9.731702 10.568498
v 9.605700 -3.458402 11.812399
v 14.703100 -1.135801 7.782700
v 16.578100 -7.409001 6.538798
v -4.260900 -16.881001 3.300297
v -0.812900 -11.599300 1.148298
v -1.067800 -8.855301 7.474598
v -4.515800 -14.137002 9.626598
v -15.793400 -8.520801 5.467898
v -14.631800 -6.926402 11.833899
v -8.299100 -4.771902 10.138699
v -9.460800 -6.366301 3.772799
v 15.925100 6.639298 11.462701
v 9.398400 5.381398 11.948601
v 8.606300 6.910399 5.266401
v 15.133000 8.168199 4.780501
v 6.697700 13.701400 2.530102
v 4.297400 7.947799 4.886201
v -1.353700 11.219299 7.117902
v 1.046600 16.972799 4.761803
v 10.133500 -1.768803 20.335300
v 8.949800 3.075497 15.914101
v 4.112700 -0.834202 12.925100
v 5.296400 -5.678603 17.346399
v 8.841400 1.134398 14.507900
v 14.601300 4.067297 16.131800
v 14.695300 7.267398 10.018901
v 8.935400 4.334399 8.394901
v -15.138100 10.857499 6.220702
v -15.013500 7.823698 12.153401
v -10.795600 2.997598 9.597001
v -10.920100 6.031400 3.664201
v 9.128300 0.050098 10.733500
v 14.246900 -3.937202 12.255899
v 17.191799 -2.472901 6.189600
v 12.073200 1.514399 4.667201
v 11.809000 14.462199 5.134502
v 5.656200 15.811099 7.311603
v 3.406200 9.859699 4.640301
v 9.559000 8.510800 2.463202
v -2.402300 5.378797 20.811399
v -1.403400 10.782598 17.040802
v 3.850500 7.610298 13.886301
v 2.851500 2.206497 17.656900
v 3.653000 7.948998 9.144201
v 2.491700 13.433198 12.748502
v 2.710300 17.253498 7.006103
v 3.871500 11.769199 3.401802
v -11.261900 8.417097 15.857701
v -7.629900 4.658698 11.722501
v -8.962300 -0.893003 15.598200
v -12.594300 2.865397 19.733299
v -13.759900 -10.126801 3.537398
v -9.594600 -10.762300 8.700998
v -9.975700 -3.967902 9.844599
v -14.141000 -3.332401 4.681000
v 5.234500 10.382298 17.580402
v 0.726700 7.071598 13.956101
v 3.689900 1.096897 15.728400
v 8.197700 4.407697 19.352699
v -5.202900 -1.125504 21.983299
v -1.267800 0.982997 17.034901
v -3.617200 -4.098902 13.001199
v -7.552300 -6.207403 17.949497
v 14.415200 -0.833702 11.237200
v 8.951300 -4.493302 12.318699
v 11.364700 -6.258703 18.537798
v 16.828600 -2.599103 17.456301
vn 0.924299 -0.370199 0.092866
vn 0.924297 -0.370200 0.092876
vn 0.096359 -0.900867 0.423266
vn 0.096371 -0.900872 0.423252
vn -0.254786 0.378864 0.889689
vn -0.254788 0.378868 0.889687
vn -0.394195 0.225396 0.890958
vn 0.434507 -0.690420 -0.578380
vn 0.434512 -0.690427 -0.578368
vn -0.370463 -0.894068 -0.251792
vn -0.370461 -0.894069 -0.251791
vn -0.148598 0.708731 0.689651
vn -0.148598 0.708733 0.689649
vn 0.796486 -0.292940 0.528958
vn 0.796489 -0.292935 0.528956
vn -0.027214 0.941243 -0.336633
vn -0.027228 0.941247 -0.336619
vn -0.083319 0.780914 -0.619057
vn -0.083314 0.780921 -0.619048
vn -0.441511 -0.036622 -0.896508
vn -0.441504 -0.036627 -0.896511
vn 0.941743 0.248107 -0.227074
vn 0.941743 0.248105 -0.227078
vn 0.994239 -0.092627 0.053944
vn 0.994239 -0.092628 0.053943
vn -0.285742 -0.379671 0.879887
vn -0.285737 -0.379688 0.879882
vn 0.268699 -0.484909 -0.832264
vn 0.268682 -0.484913 -0.832268
vn 0.403523 0.516450 -0.755280
vn 0.403521 0.516463 -0.755272
vn -0.308153 0.949821 -0.053690
vn -0.308160 0.949819 -0.053672
vn -0.446806 0.220690 0.866983
vn -0.446791 0.220686 0.866992
vn 0.843171 0.534458 0.058452
vn -0.249489 -0.822654 -0.510877
vn -0.249495 -0.822661 -0.510862
vn 0.195229 -0.808852 -0.554656
vn 0.195244 -0.808855 -0.554648
vn 0.269177 -0.721460 0.637996
vn 0.269181 -0.721450 0.638006
vn 0.479507 -0.577219 -0.660977
vn 0.479528 -0.577215 -0.660965
vn 0.640108 0.264023 0.721494
vn 0.640101 0.264016 0.721503
vn -0.175033 -0.574449 0.799607
vn -0.175023 -0.574444 0.799613
vn 0.734581 0.601524 0.313944
vn 0.734581 0.601522 0.313946
vn 0.239467 0.965204 0.105055
vn 0.239469 0.965203 0.105057
vn 0.955188 0.078908 0.285288
vn 0.955190 0.078910 0.285283
vn 0.660880 0.474888 -0.581136
vn 0.660880 0.474888 -0.581137
vn -0.285785 0.125543 0.950035
vn -0.285784 0.125543 0.950035
vn 0.605036 0.599795 0.523620
vn -0.213512 -0.976554 -0.027462
vn -0.213513 -0.976554 -0.027467
vn -0.160571 0.825871 -0.540512
vn -0.612507 -0.026420 -0.790023
vn -0.612507 -0.026420 -0.790024
vn 0.854968 -0.462388 0.235007
vn -0.356997 0.919395 -0.165126
vn -0.356999 0.919394 -0.165123
vn 0.166619 -0.956702 -0.238660
vn 0.166606 -0.956708 -0.238646
vn -0.446804 -0.173035 -0.877739
vn -0.446803 -0.173039 -0.877738
vn -0.690719 0.388090 0.610158
vn -0.690718 0.388094 0.610157
vn -0.502848 0.768941 0.394808
vn -0.502863 0.768941 0.394789
vn 0.791221 0.551047 0.265171
vn 0.791217 0.551049 0.265181
vn 0.477486 0.772675 0.418307
vn 0.203385 -0.463903 0.862223
vn -0.630752 -0.362244 -0.686244
vn -0.630757 -0.362232 -0.686246
vn -0.984192 -0.127873 -0.122537
vn -0.984195 -0.127868 -0.122515
vn -0.815922 -0.186277 -0.547331
vn -0.815916 -0.186276 -0.547341
vn -0.778675 -0.146368 0.610116
vn -0.598431 -0.059804 0.798939
vn -0.598429 -0.059804 0.798941
vn -0.731748 0.597943 -0.327123
vn -0.731743 0.597948 -0.327124
vn -0.453367 0.795629 0.401788
usemtl 01___Default.003
s off
f 1//1 2//1 3//1
f 4//2 1//2 3//2
f 5//3 6//3 7//3
f 7//4 8//4 5//4
f 9//5 10//5 11//5
f 11//6 12//6 9//6
f 13//7 14//7 15//7
f 15//7 16//7 13//7
f 17//8 18//8 19//8
f 19//9 20//9 17//9
f 21//10 22//10 23//10
f 23//11 24//11 21//11
f 25//12 26//12 27//12
f 27//13 28//13 25//13
f 29//14 30//14 31//14
f 31//15 32//15 29//15
f 33//16 34//16 35//16
f 35//17 36//17 33//17
f 37//18 38//18 39//18
f 39//19 40//19 37//19
f 41//20 42//20 43//20
f 43//21 44//21 41//21
f 45//22 46//22 47//22
f 47//23 48//23 45//23
f 49//24 50//24 51//24
f 51//25 52//25 49//25
f 53//26 54//26 55//26
f 55//27 56//27 53//27
f 57//28 58//28 59//28
f 59//29 60//29 57//29
f 61//30 62//30 63//30
f 63//31 64//31 61//31
f 65//32 66//32 67//32
f 67//33 68//33 65//33
f 69//34 70//34 71//34
f 71//35 72//35 69//35
f 73//36 74//36 75//36
f 75//36 76//36 73//36
f 77//37 78//37 79//37
f 79//38 80//38 77//38
f 81//39 82//39 83//39
f 83//40 84//40 81//40
f 85//41 86//41 87//41
f 87//42 88//42 85//42
f 89//43 90//43 91//43
f 91//44 92//44 89//44
f 93//45 94//45 95//45
f 95//46 96//46 93//46
f 97//47 98//47 99//47
f 99//48 100//48 97//48
f 101//49 102//49 103//49
f 103//50 104//50 101//50
f 105//51 106//51 107//51
f 107//52 108//52 105//52
f 109//53 110//53 111//53
f 111//54 112//54 109//54
f 113//55 114//55 115//55
f 115//56 116//56 113//56
f 117//57 118//57 119//57
f 119//58 120//58 117//58
f 121//59 122//59 123//59
f 123//59 124//59 121//59
f 125//60 126//60 127//60
f 127//61 128//61 125//61
f 129//62 130//62 131//62
f 131//62 132//62 129//62
f 133//63 134//63 135//63
f 135//64 136//64 133//64
f 137//65 138//65 139//65
f 139//65 140//65 137//65
f 141//66 142//66 143//66
f 143//67 144//67 141//67
f 145//68 146//68 147//68
f 147//69 148//69 145//69
f 149//70 150//70 151//70
f 151//71 152//71 149//71
f 153//72 154//72 155//72
f 155//73 156//73 153//73
f 157//74 158//74 159//74
f 159//75 160//75 157//75
f 161//76 162//76 163//76
f 163//77 164//77 161//77
f 165//78 166//78 167//78
f 167//78 168//78 165//78
f 169//79 170//79 171//79
f 171//79 172//79 169//79
f 173//80 174//80 175//80
f 175//81 176//81 173//81
f 177//82 178//82 179//82
f 179//83 180//83 177//83
f 181//84 182//84 183//84
f 183//85 184//85 181//85
f 185//86 186//86 187//86
f 187//86 188//86 185//86
f 189//87 190//87 191//87
f 191//88 192//88 189//88
f 193//89 194//89 195//89
f 195//90 196//90 193//90
f 197//91 198//91 199//91
f 199//91 200//91 197//91
o Box001.002
v -7.616000 -7.616003 15.164699
v -12.415500 -7.271102 14.417699
v -10.764700 -10.764702 14.585299
v -7.271100 -12.415503 15.543498
v -3.560500 -8.600003 15.983399
v -3.401400 -11.829703 15.438098
v 2.168200 -9.410103 16.786798
v 1.554800 -12.335402 15.245198
v 8.174600 -7.588303 15.667399
v 6.960800 -12.495703 15.205898
v 11.295500 -8.682202 14.076499
v 11.513300 -10.760202 14.713998
v -8.600000 -3.560503 16.948099
v -11.829700 -3.401403 15.876099
v -3.595800 -3.595803 17.586300
v 3.040300 -3.834003 18.356501
v 8.586700 -4.106103 16.109501
v 12.951500 -3.014903 15.603199
v -9.410100 2.168197 15.840300
v -12.335400 1.554798 15.651900
v -3.834000 3.040297 17.622101
v 2.799600 2.799597 17.203600
v 7.753500 1.610097 16.297100
v 12.421200 1.932498 15.203200
v -7.588300 8.174597 15.740701
v -12.495700 6.960798 15.625401
v -4.106100 8.586698 16.497803
v 1.610100 7.753497 17.298101
v 8.205400 8.205398 15.593601
v 11.194500 5.530698 13.637001
v -8.682200 11.295498 14.008101
v -10.760200 11.513298 14.371902
v -3.014900 12.951497 15.281902
v 1.932500 12.421197 15.294202
v 5.530700 11.194497 15.176002
v 11.499500 11.499497 14.983702
v -7.204200 -11.895001 8.271498
v -12.160600 -12.160601 7.222798
v -11.471400 -11.471400 -0.000002
v -6.890200 -11.305900 -0.000002
v -2.009600 -13.158201 7.804698
v -2.307100 -12.823200 -0.000002
v 3.312700 -13.875801 8.102198
v 2.673000 -12.776900 -0.000002
v 7.767400 -12.805901 8.237699
v 7.386000 -11.552300 -0.000002
v 10.862900 -11.223001 7.359798
v 10.824200 -10.682400 -0.000002
v 13.085600 -6.851101 6.902699
v 12.471200 -7.968200 -0.000001
v 13.413700 -2.916601 7.974400
v 12.045900 -1.945000 -0.000000
v 12.689800 2.404199 8.037800
v 12.094800 3.021900 0.000000
v 12.146600 8.120499 8.638401
v 12.200200 6.287300 0.000001
v 11.762400 11.762399 7.226202
v 11.624200 11.624200 0.000002
v 8.120500 12.146599 6.826602
v 6.287300 12.200200 0.000002
v 2.404200 12.689799 7.872802
v 3.021900 12.094800 0.000002
v -2.916600 13.413699 7.298603
v -1.945000 12.045900 0.000002
v -6.851100 13.085599 7.291402
v -7.968200 12.471200 0.000002
v -11.223000 10.862899 7.176602
v -10.682400 10.824200 0.000002
v -12.805900 7.767398 7.721002
v -11.552300 7.386000 0.000001
v -13.875800 3.312699 7.864100
v -12.776900 2.673000 0.000000
v -13.158200 -2.009501 8.017900
v -12.823200 -2.307100 -0.000000
v -11.895000 -7.204201 7.554199
v -11.305900 -6.890200 -0.000001
vn -0.155570 -0.026138 0.987479
vn -0.237825 0.059426 0.969489
vn -0.182454 0.064322 0.981108
vn 0.051627 -0.163788 0.985144
vn -0.160626 -0.172010 0.971911
vn -0.012877 -0.464060 0.885710
vn 0.301663 -0.493234 0.815917
vn 0.004428 -0.094714 0.995495
vn 0.395046 -0.182384 0.900375
vn -0.008185 0.292499 0.956231
vn -0.314176 -0.292793 0.903087
vn -0.168933 -0.430820 0.886485
vn -0.117542 -0.423515 0.898231
vn -0.257575 -0.296399 0.919675
vn -0.120592 -0.303590 0.945141
vn -0.168298 -0.242631 0.955409
vn 0.344874 -0.303937 0.888079
vn 0.224621 -0.148847 0.963011
vn 0.148985 -0.141876 0.978609
vn 0.332232 -0.334635 0.881840
vn -0.072102 0.037729 0.996684
vn -0.305795 0.138901 0.941911
vn -0.320779 0.135901 0.937354
vn -0.126572 -0.009894 0.991908
vn 0.062849 -0.003128 0.998018
vn -0.107783 0.166435 0.980144
vn 0.217680 0.174786 0.960242
vn 0.376402 0.024470 0.926133
vn 0.228088 0.001293 0.973640
vn 0.092504 0.090089 0.991629
vn -0.024520 0.004173 0.999691
vn -0.072247 0.038440 0.996646
vn -0.221111 0.083178 0.971695
vn -0.324206 0.172633 0.930101
vn -0.108507 0.192378 0.975304
vn 0.062819 -0.003955 0.998017
vn 0.247380 0.040933 0.968054
vn 0.200212 0.090344 0.975578
vn 0.576476 0.047512 0.815732
vn 0.175514 0.442604 0.879373
vn 0.188809 0.193132 0.962835
vn -0.131043 0.445688 0.885545
vn -0.306702 0.377553 0.873720
vn -0.237099 0.315255 0.918912
vn 0.025716 0.262292 0.964646
vn -0.070131 0.397609 0.914871
vn 0.159519 0.380119 0.911078
vn 0.216127 0.322161 0.921684
vn 0.023670 0.159069 0.986984
vn 0.387381 -0.221698 0.894866
vn 0.071849 -0.993531 -0.087947
vn 0.036015 -0.996922 -0.069634
vn -0.242187 -0.967084 -0.078071
vn -0.314158 -0.948935 -0.028755
vn -0.131466 -0.990611 -0.037509
vn 0.009211 -0.990788 -0.135108
vn 0.235209 -0.960481 -0.148841
vn 0.248367 -0.955865 -0.156961
vn 0.414388 -0.896693 -0.155643
vn 0.244639 -0.966914 -0.072309
vn -0.468815 -0.847317 0.249533
vn 0.068266 -0.995166 -0.070602
vn 0.147472 -0.986638 -0.069263
vn -0.223538 -0.966331 0.127420
vn -0.094363 -0.983559 0.153971
vn -0.141170 -0.974328 0.175373
vn -0.027531 -0.978532 0.204247
vn 0.230949 -0.970449 0.069934
vn 0.362822 -0.928127 0.083315
vn 0.458677 -0.888471 0.015346
vn 0.889142 -0.456036 -0.038173
vn 0.854888 -0.518754 0.007860
vn 0.995003 -0.061564 -0.078601
vn 0.984599 0.069522 -0.160412
vn 0.979191 0.135025 -0.151503
vn 0.997168 -0.009817 -0.074570
vn 0.992691 0.101235 -0.065704
vn 0.999394 -0.032259 0.013047
vn 0.994957 0.099194 -0.014877
vn 0.994006 0.107281 -0.021062
vn 0.992828 0.075663 -0.092566
vn 0.890623 -0.441340 0.109588
vn 0.936630 -0.314988 0.153320
vn 0.993354 -0.098882 0.058909
vn 0.991881 0.111292 0.061528
vn 0.989899 0.134129 0.045937
vn 0.936970 0.344594 0.057808
vn 0.972782 0.069205 0.221145
vn 0.985973 -0.083047 0.144775
vn 0.992147 0.119271 0.037666
vn 0.107174 0.994017 -0.021060
vn 0.107281 0.994007 -0.021004
vn 0.091546 0.995660 -0.016766
vn -0.032163 0.996448 -0.077832
vn 0.141270 0.987927 -0.063580
vn -0.009674 0.982609 -0.185434
vn -0.081170 0.977634 -0.194020
vn 0.070120 0.993060 -0.094422
vn -0.453072 0.891456 -0.005703
vn -0.518275 0.854099 -0.043646
vn -0.049973 0.998233 0.032136
vn 0.088679 0.986178 0.139962
vn 0.321848 0.924281 0.205228
vn 0.102215 0.993855 0.042467
vn 0.106375 0.993408 0.042715
vn 0.128332 0.989981 0.058896
vn -0.290794 0.955386 0.051733
vn -0.081185 0.968368 0.235952
vn 0.150212 0.944352 0.292634
vn -0.451523 0.890773 -0.051477
vn -0.893097 0.444437 -0.069672
vn -0.955816 0.241831 -0.167134
vn -0.959903 0.225179 -0.166975
vn -0.956339 0.248490 -0.153848
vn -0.982615 -0.136135 -0.126233
vn -0.999071 0.009288 -0.042087
vn -0.971839 -0.233471 -0.031939
vn -0.945747 -0.313103 -0.086767
vn -0.995458 0.058372 -0.075203
vn -0.995153 0.035951 -0.091527
vn -0.931550 0.362598 0.027141
vn -0.881421 0.465150 0.082056
vn -0.998911 -0.029443 0.036197
vn -0.942346 0.234011 0.239215
vn -0.980571 -0.092219 0.173137
vn -0.981358 -0.128180 0.143203
vn -0.980360 0.080567 0.180009
vn -0.970419 -0.229209 -0.075827
vn -0.900420 -0.428944 -0.072465
vn -0.983067 0.040734 0.178662
usemtl 07___Default
s off
f 201//92 202//92 203//92
f 204//93 201//93 203//93
f 205//94 201//94 204//94
f 204//95 206//95 205//95
f 207//96 205//96 206//96
f 206//97 208//97 207//97
f 209//98 207//98 208//98
f 208//99 210//99 209//99
f 211//100 209//100 210//100
f 210//101 212//101 211//101
f 213//102 214//102 202//102
f 202//103 201//103 213//103
f 213//104 201//104 215//104
f 201//105 205//105 215//105
f 216//106 215//106 205//106
f 205//107 207//107 216//107
f 217//108 216//108 207//108
f 207//109 209//109 217//109
f 218//110 217//110 209//110
f 209//111 211//111 218//111
f 219//112 220//112 214//112
f 214//113 213//113 219//113
f 221//114 219//114 213//114
f 213//115 215//115 221//115
f 222//116 221//116 215//116
f 215//117 216//117 222//117
f 223//118 222//118 216//118
f 216//119 217//119 223//119
f 224//120 223//120 217//120
f 217//121 218//121 224//121
f 225//122 226//122 220//122
f 220//123 219//123 225//123
f 227//124 225//124 219//124
f 219//125 221//125 227//125
f 228//126 227//126 221//126
f 221//127 222//127 228//127
f 229//128 228//128 222//128
f 222//129 223//129 229//129
f 230//130 229//130 223//130
f 223//131 224//131 230//131
f 231//132 232//132 226//132
f 226//133 225//133 231//133
f 233//134 231//134 225//134
f 225//135 227//135 233//135
f 234//136 233//136 227//136
f 227//137 228//137 234//137
f 235//138 234//138 228//138
f 228//139 229//139 235//139
f 236//140 235//140 229//140
f 229//141 230//141 236//141
f 237//142 238//142 239//142
f 239//143 240//143 237//143
f 241//144 237//144 240//144
f 240//145 242//145 241//145
f 243//146 241//146 242//146
f 242//147 244//147 243//147
f 245//148 243//148 244//148
f 244//149 246//149 245//149
f 247//150 245//150 246//150
f 246//151 248//151 247//151
f 204//152 203//152 238//152
f 238//153 237//153 204//153
f 206//154 204//154 237//154
f 237//155 241//155 206//155
f 208//156 206//156 241//156
f 241//157 243//157 208//157
f 210//158 208//158 243//158
f 243//159 245//159 210//159
f 212//160 210//160 245//160
f 245//161 247//161 212//161
f 249//162 247//162 248//162
f 248//163 250//163 249//163
f 251//164 249//164 250//164
f 250//165 252//165 251//165
f 253//166 251//166 252//166
f 252//167 254//167 253//167
f 255//168 253//168 254//168
f 254//169 256//169 255//169
f 257//170 255//170 256//170
f 256//171 258//171 257//171
f 211//172 212//172 247//172
f 247//173 249//173 211//173
f 218//174 211//174 249//174
f 249//175 251//175 218//175
f 224//176 218//176 251//176
f 251//177 253//177 224//177
f 230//178 224//178 253//178
f 253//179 255//179 230//179
f 236//180 230//180 255//180
f 255//181 257//181 236//181
f 259//182 257//182 258//182
f 258//183 260//183 259//183
f 261//184 259//184 260//184
f 260//185 262//185 261//185
f 263//186 261//186 262//186
f 262//187 264//187 263//187
f 265//188 263//188 264//188
f 264//189 266//189 265//189
f 267//190 265//190 266//190
f 266//191 268//191 267//191
f 235//192 236//192 257//192
f 257//193 259//193 235//193
f 234//194 235//194 259//194
f 259//195 261//195 234//195
f 233//196 234//196 261//196
f 261//197 263//197 233//197
f 231//198 233//198 263//198
f 263//199 265//199 231//199
f 232//200 231//200 265//200
f 265//201 267//201 232//201
f 269//202 267//202 268//202
f 268//203 270//203 269//203
f 271//204 269//204 270//204
f 270//205 272//205 271//205
f 273//206 271//206 272//206
f 272//207 274//207 273//207
f 275//208 273//208 274//208
f 274//209 276//209 275//209
f 238//210 275//210 276//210
f 276//211 239//211 238//211
f 226//212 232//212 267//212
f 267//213 269//213 226//213
f 220//214 226//214 269//214
f 269//215 271//215 220//215
f 214//216 220//216 271//216
f 271//217 273//217 214//217
f 202//218 214//218 273//218
f 273//219 275//219 202//219
f 203//220 202//220 275//220
f 275//221 238//221 203//221
