# 3ds Max Wavefront OBJ Exporter v0.97b - (c)2007 guruware
# File Created: 22.11.2015 11:30:39

mtllib StoneWall001.mtl

#
# object Box001
#

v  16.0000 -1.0000 32.0000
v  16.0000 1.0000 32.0000
v  -16.0000 1.0000 32.0000
v  -16.0000 -1.0000 32.0000
v  16.0000 -1.0000 0.0000
v  16.0000 1.0000 0.0000
v  -16.0000 1.0000 0.0000
v  -16.0000 -1.0000 0.0000
# 8 vertices

vn 0.0000 0.0000 1.0000
vn 1.0000 0.0000 0.0000
vn -0.0000 1.0000 0.0000
vn -1.0000 -0.0000 0.0000
vn 0.0000 -1.0000 0.0000
# 5 vertex normals

g Box001
usemtl 02___Default
f 1//1 2//1 3//1 
f 3//1 4//1 1//1 
f 5//2 6//2 2//2 
f 2//2 1//2 5//2 
f 6//3 7//3 3//3 
f 3//3 2//3 6//3 
f 7//4 8//4 4//4 
f 4//4 3//4 7//4 
f 8//5 5//5 1//5 
f 1//5 4//5 8//5 
# 10 faces

#
# object Box002
#

v  -2.0000 -2.0000 32.0000
v  2.0000 -2.0000 32.0000
v  2.0000 2.0000 32.0000
v  -2.0000 2.0000 32.0000
v  3.2619 -3.2619 0.0000
v  3.2619 -3.2619 1.4304
v  -3.2619 -3.2619 1.4304
v  -3.2619 -3.2619 0.0000
v  3.2619 3.2619 -0.0000
v  3.2619 3.2619 1.4304
v  -3.2619 3.2619 -0.0000
v  -3.2619 3.2619 1.4304
v  -2.0000 -2.0000 2.8608
v  2.0000 -2.0000 2.8608
v  2.0000 2.0000 2.8608
v  -2.0000 2.0000 2.8608
v  2.3365 -2.3365 2.8608
v  -2.3365 -2.3365 2.8608
v  -2.3365 -2.3365 1.4304
v  2.3365 -2.3365 1.4304
v  2.3365 2.3365 2.8608
v  2.3365 2.3365 1.4304
v  -2.3365 2.3365 2.8608
v  -2.3365 2.3365 1.4304
# 24 vertices

vn 0.0000 0.0000 1.0000
vn 0.0000 -1.0000 0.0000
vn 1.0000 0.0000 0.0000
vn 0.0000 1.0000 -0.0000
vn -1.0000 0.0000 0.0000
vn 0.0000 -1.0000 -0.0000
vn 0.0000 1.0000 0.0000
vn -0.0000 0.0000 1.0000
# 8 vertex normals

g Box002
usemtl 03___Default
f 9//6 10//6 11//6 
f 11//6 12//6 9//6 
f 13//7 14//7 15//7 
f 15//7 16//7 13//7 
f 17//8 18//8 14//8 
f 14//8 13//8 17//8 
f 19//9 20//9 18//9 
f 18//9 17//9 19//9 
f 16//10 15//10 20//10 
f 20//10 19//10 16//10 
f 10//11 9//11 21//11 
f 21//11 22//11 10//11 
f 11//8 10//8 22//8 
f 22//8 23//8 11//8 
f 12//12 11//12 23//12 
f 23//12 24//12 12//12 
f 9//10 12//10 24//10 
f 24//10 21//10 9//10 
f 25//7 26//7 27//7 
f 27//7 28//7 25//7 
f 29//8 25//8 28//8 
f 28//8 30//8 29//8 
f 31//12 29//12 30//12 
f 30//12 32//12 31//12 
f 26//10 31//10 32//10 
f 32//10 27//10 26//10 
f 22//6 21//6 26//6 
f 26//6 25//6 22//6 
f 21//6 24//6 31//6 
f 31//6 26//6 21//6 
f 24//6 23//6 29//6 
f 29//6 31//6 24//6 
f 23//6 22//6 25//6 
f 25//6 29//6 23//6 
f 28//6 27//6 15//6 
f 15//6 14//6 28//6 
f 27//13 32//13 20//13 
f 20//13 15//13 27//13 
f 32//6 30//6 18//6 
f 18//6 20//6 32//6 
f 30//6 28//6 14//6 
f 14//6 18//6 30//6 
# 42 faces

